<?xml version="1.0" encoding="UTF-8" standalone="no"?>
<!DOCTYPE svg PUBLIC "-//W3C//DTD SVG 1.1//EN"
 "http://www.w3.org/Graphics/SVG/1.1/DTD/svg11.dtd">
<!-- Generated by graphviz version 2.40.1 (20161225.0304)
 -->
<!-- Title: dependencies Pages: 1 -->
<svg width="960pt" height="211pt"
 viewBox="0.00 0.00 960.00 211.00" xmlns="http://www.w3.org/2000/svg" xmlns:xlink="http://www.w3.org/1999/xlink">
<g id="graph0" class="graph" transform="scale(1 1) rotate(0) translate(4 207)">
<title>dependencies</title>
<polygon fill="#ffffff" stroke="transparent" points="-4,4 -4,-207 956,-207 956,4 -4,4"/>
<text text-anchor="start" x="455.0091" y="-42.4" font-family="sans-serif" font-weight="bold" font-size="14.00" fill="#000000">Legend</text>
<polygon fill="#ffffb3" stroke="transparent" points="242,-10 242,-30 262,-30 262,-10 242,-10"/>
<text text-anchor="start" x="265.629" y="-15.4" font-family="sans-serif" font-size="14.00" fill="#000000"> &#160;Declarations</text>
<polygon fill="#8dd3c7" stroke="transparent" points="355,-10 355,-30 375,-30 375,-10 355,-10"/>
<text text-anchor="start" x="378.7251" y="-15.4" font-family="sans-serif" font-size="14.00" fill="#000000"> &#160;Module</text>
<polygon fill="#80b1d3" stroke="transparent" points="441,-10 441,-30 461,-30 461,-10 441,-10"/>
<text text-anchor="start" x="464.7812" y="-15.4" font-family="sans-serif" font-size="14.00" fill="#000000"> &#160;Bootstrap</text>
<polygon fill="#fdb462" stroke="transparent" points="538,-10 538,-30 558,-30 558,-10 538,-10"/>
<text text-anchor="start" x="561.6732" y="-15.4" font-family="sans-serif" font-size="14.00" fill="#000000"> &#160;Providers</text>
<polygon fill="#fb8072" stroke="transparent" points="634,-10 634,-30 654,-30 654,-10 634,-10"/>
<text text-anchor="start" x="657.7258" y="-15.4" font-family="sans-serif" font-size="14.00" fill="#000000"> &#160;Exports</text>
<g id="clust1" class="cluster">
<title>cluster_PagesModule</title>
<polygon fill="none" stroke="#000000" stroke-dasharray="1,5" points="8,-70 8,-195 944,-195 944,-70 8,-70"/>
</g>
<g id="clust2" class="cluster">
<title>cluster_PagesModule_declarations</title>
<polygon fill="none" stroke="#000000" points="338,-78 338,-130 936,-130 936,-78 338,-78"/>
</g>
<g id="clust7" class="cluster">
<title>cluster_PagesModule_imports</title>
<polygon fill="none" stroke="#000000" points="16,-78 16,-130 330,-130 330,-78 16,-78"/>
</g>
<!-- CollapseButtonComponent -->
<g id="node1" class="node">
<title>CollapseButtonComponent</title>
<polygon fill="#ffffb3" stroke="#000000" points="928.4424,-122 759.5576,-122 759.5576,-86 928.4424,-86 928.4424,-122"/>
<text text-anchor="middle" x="844" y="-99.8" font-family="Times,serif" font-size="14.00" fill="#000000">CollapseButtonComponent</text>
</g>
<!-- PagesModule -->
<g id="node5" class="node">
<title>PagesModule</title>
<polygon fill="#8dd3c7" stroke="#000000" points="522.2064,-187 519.2064,-191 498.2064,-191 495.2064,-187 429.7936,-187 429.7936,-151 522.2064,-151 522.2064,-187"/>
<text text-anchor="middle" x="476" y="-164.8" font-family="Times,serif" font-size="14.00" fill="#000000">PagesModule</text>
</g>
<!-- CollapseButtonComponent&#45;&gt;PagesModule -->
<g id="edge1" class="edge">
<title>CollapseButtonComponent&#45;&gt;PagesModule</title>
<path fill="none" stroke="#000000" d="M844,-122.2843C844,-143.3211 844,-175 844,-175 844,-175 532.2348,-175 532.2348,-175"/>
<polygon fill="#000000" stroke="#000000" points="532.2349,-171.5001 522.2348,-175 532.2348,-178.5001 532.2349,-171.5001"/>
</g>
<!-- HeaderComponent -->
<g id="node2" class="node">
<title>HeaderComponent</title>
<polygon fill="#ffffb3" stroke="#000000" points="741.7437,-122 620.2563,-122 620.2563,-86 741.7437,-86 741.7437,-122"/>
<text text-anchor="middle" x="681" y="-99.8" font-family="Times,serif" font-size="14.00" fill="#000000">HeaderComponent</text>
</g>
<!-- HeaderComponent&#45;&gt;PagesModule -->
<g id="edge2" class="edge">
<title>HeaderComponent&#45;&gt;PagesModule</title>
<path fill="none" stroke="#000000" d="M681,-122.0225C681,-139.3734 681,-163 681,-163 681,-163 532.2616,-163 532.2616,-163"/>
<polygon fill="#000000" stroke="#000000" points="532.2616,-159.5001 522.2616,-163 532.2616,-166.5001 532.2616,-159.5001"/>
</g>
<!-- PagesComponent -->
<g id="node3" class="node">
<title>PagesComponent</title>
<polygon fill="#ffffb3" stroke="#000000" points="601.9888,-122 488.0112,-122 488.0112,-86 601.9888,-86 601.9888,-122"/>
<text text-anchor="middle" x="545" y="-99.8" font-family="Times,serif" font-size="14.00" fill="#000000">PagesComponent</text>
</g>
<!-- PagesComponent&#45;&gt;PagesModule -->
<g id="edge3" class="edge">
<title>PagesComponent&#45;&gt;PagesModule</title>
<path fill="none" stroke="#000000" d="M505.0544,-122.1061C505.0544,-122.1061 505.0544,-140.991 505.0544,-140.991"/>
<polygon fill="#000000" stroke="#000000" points="501.5544,-140.9909 505.0544,-150.991 508.5544,-140.991 501.5544,-140.9909"/>
</g>
<!-- SidebarComponent -->
<g id="node4" class="node">
<title>SidebarComponent</title>
<polygon fill="#ffffb3" stroke="#000000" points="470.0954,-122 345.9046,-122 345.9046,-86 470.0954,-86 470.0954,-122"/>
<text text-anchor="middle" x="408" y="-99.8" font-family="Times,serif" font-size="14.00" fill="#000000">SidebarComponent</text>
</g>
<!-- SidebarComponent&#45;&gt;PagesModule -->
<g id="edge4" class="edge">
<title>SidebarComponent&#45;&gt;PagesModule</title>
<path fill="none" stroke="#000000" d="M449.9723,-122.1061C449.9723,-122.1061 449.9723,-140.991 449.9723,-140.991"/>
<polygon fill="#000000" stroke="#000000" points="446.4724,-140.9909 449.9723,-150.991 453.4724,-140.991 446.4724,-140.9909"/>
</g>
<!-- PagesResolverModule -->
<g id="node6" class="node">
<title>PagesResolverModule</title>
<polygon fill="#8dd3c7" stroke="#000000" points="321.9678,-122 318.9678,-126 297.9678,-126 294.9678,-122 180.0322,-122 180.0322,-86 321.9678,-86 321.9678,-122"/>
<text text-anchor="middle" x="251" y="-99.8" font-family="Times,serif" font-size="14.00" fill="#000000">PagesResolverModule</text>
</g>
<!-- PagesResolverModule&#45;&gt;PagesModule -->
<g id="edge5" class="edge">
<title>PagesResolverModule&#45;&gt;PagesModule</title>
<path fill="none" stroke="#000000" d="M251,-122.0225C251,-139.3734 251,-163 251,-163 251,-163 419.6527,-163 419.6527,-163"/>
<polygon fill="#000000" stroke="#000000" points="419.6527,-166.5001 429.6527,-163 419.6526,-159.5001 419.6527,-166.5001"/>
</g>
<!-- PagesRoutingModule -->
<g id="node7" class="node">
<title>PagesRoutingModule</title>
<polygon fill="#8dd3c7" stroke="#000000" points="161.8244,-122 158.8244,-126 137.8244,-126 134.8244,-122 24.1756,-122 24.1756,-86 161.8244,-86 161.8244,-122"/>
<text text-anchor="middle" x="93" y="-99.8" font-family="Times,serif" font-size="14.00" fill="#000000">PagesRoutingModule</text>
</g>
<!-- PagesRoutingModule&#45;&gt;PagesModule -->
<g id="edge6" class="edge">
<title>PagesRoutingModule&#45;&gt;PagesModule</title>
<path fill="none" stroke="#000000" d="M93,-122.2843C93,-143.3211 93,-175 93,-175 93,-175 419.8013,-175 419.8013,-175"/>
<polygon fill="#000000" stroke="#000000" points="419.8013,-178.5001 429.8013,-175 419.8012,-171.5001 419.8013,-178.5001"/>
</g>
</g>
</svg>
