<?xml version="1.0" encoding="UTF-8" standalone="no"?>
<!DOCTYPE svg PUBLIC "-//W3C//DTD SVG 1.1//EN"
 "http://www.w3.org/Graphics/SVG/1.1/DTD/svg11.dtd">
<!-- Generated by graphviz version 2.40.1 (20161225.0304)
 -->
<!-- Title: dependencies Pages: 1 -->
<svg width="504pt" height="284pt"
 viewBox="0.00 0.00 504.00 284.00" xmlns="http://www.w3.org/2000/svg" xmlns:xlink="http://www.w3.org/1999/xlink">
<g id="graph0" class="graph" transform="scale(1 1) rotate(0) translate(4 280)">
<title>dependencies</title>
<polygon fill="#ffffff" stroke="transparent" points="-4,4 -4,-280 500,-280 500,4 -4,4"/>
<text text-anchor="start" x="227.0091" y="-42.4" font-family="sans-serif" font-weight="bold" font-size="14.00" fill="#000000">Legend</text>
<polygon fill="#ffffb3" stroke="transparent" points="14,-10 14,-30 34,-30 34,-10 14,-10"/>
<text text-anchor="start" x="37.629" y="-15.4" font-family="sans-serif" font-size="14.00" fill="#000000"> &#160;Declarations</text>
<polygon fill="#8dd3c7" stroke="transparent" points="127,-10 127,-30 147,-30 147,-10 127,-10"/>
<text text-anchor="start" x="150.7251" y="-15.4" font-family="sans-serif" font-size="14.00" fill="#000000"> &#160;Module</text>
<polygon fill="#80b1d3" stroke="transparent" points="213,-10 213,-30 233,-30 233,-10 213,-10"/>
<text text-anchor="start" x="236.7812" y="-15.4" font-family="sans-serif" font-size="14.00" fill="#000000"> &#160;Bootstrap</text>
<polygon fill="#fdb462" stroke="transparent" points="310,-10 310,-30 330,-30 330,-10 310,-10"/>
<text text-anchor="start" x="333.6732" y="-15.4" font-family="sans-serif" font-size="14.00" fill="#000000"> &#160;Providers</text>
<polygon fill="#fb8072" stroke="transparent" points="406,-10 406,-30 426,-30 426,-10 406,-10"/>
<text text-anchor="start" x="429.7258" y="-15.4" font-family="sans-serif" font-size="14.00" fill="#000000"> &#160;Exports</text>
<g id="clust1" class="cluster">
<title>cluster_DropdownPageLinesModule</title>
<polygon fill="none" stroke="#000000" stroke-dasharray="1,5" points="130,-70 130,-268 366,-268 366,-70 130,-70"/>
</g>
<g id="clust2" class="cluster">
<title>cluster_DropdownPageLinesModule_declarations</title>
<polygon fill="none" stroke="#000000" points="140,-78 140,-130 356,-130 356,-78 140,-78"/>
</g>
<g id="clust5" class="cluster">
<title>cluster_DropdownPageLinesModule_exports</title>
<polygon fill="none" stroke="#000000" points="138,-208 138,-260 358,-260 358,-208 138,-208"/>
</g>
<!-- DropdownPageLinesComponent -->
<g id="node1" class="node">
<title>DropdownPageLinesComponent</title>
<polygon fill="#ffffb3" stroke="#000000" points="347.521,-122 148.479,-122 148.479,-86 347.521,-86 347.521,-122"/>
<text text-anchor="middle" x="248" y="-99.8" font-family="Times,serif" font-size="14.00" fill="#000000">DropdownPageLinesComponent</text>
</g>
<!-- DropdownPageLinesModule -->
<g id="node2" class="node">
<title>DropdownPageLinesModule</title>
<polygon fill="#8dd3c7" stroke="#000000" points="336.738,-187 333.738,-191 312.738,-191 309.738,-187 159.262,-187 159.262,-151 336.738,-151 336.738,-187"/>
<text text-anchor="middle" x="248" y="-164.8" font-family="Times,serif" font-size="14.00" fill="#000000">DropdownPageLinesModule</text>
</g>
<!-- DropdownPageLinesComponent&#45;&gt;DropdownPageLinesModule -->
<g id="edge1" class="edge">
<title>DropdownPageLinesComponent&#45;&gt;DropdownPageLinesModule</title>
<path fill="none" stroke="#000000" d="M248,-122.1061C248,-122.1061 248,-140.991 248,-140.991"/>
<polygon fill="#000000" stroke="#000000" points="244.5001,-140.9909 248,-150.991 251.5001,-140.991 244.5001,-140.9909"/>
</g>
<!-- DropdownPageLinesComponent  -->
<g id="node3" class="node">
<title>DropdownPageLinesComponent </title>
<polygon fill="#fb8072" stroke="#000000" points="349.5204,-252 146.4796,-252 146.4796,-216 349.5204,-216 349.5204,-252"/>
<text text-anchor="middle" x="248" y="-229.8" font-family="Times,serif" font-size="14.00" fill="#000000">DropdownPageLinesComponent </text>
</g>
<!-- DropdownPageLinesModule&#45;&gt;DropdownPageLinesComponent  -->
<g id="edge2" class="edge">
<title>DropdownPageLinesModule&#45;&gt;DropdownPageLinesComponent </title>
<path fill="none" stroke="#000000" stroke-dasharray="5,2" d="M248,-187.1061C248,-187.1061 248,-205.991 248,-205.991"/>
<polygon fill="#000000" stroke="#000000" points="244.5001,-205.9909 248,-215.991 251.5001,-205.991 244.5001,-205.9909"/>
</g>
</g>
</svg>
