<?xml version="1.0" encoding="UTF-8" standalone="no"?>
<!DOCTYPE svg PUBLIC "-//W3C//DTD SVG 1.1//EN"
 "http://www.w3.org/Graphics/SVG/1.1/DTD/svg11.dtd">
<!-- Generated by graphviz version 2.40.1 (20161225.0304)
 -->
<!-- Title: dependencies Pages: 1 -->
<svg width="504pt" height="211pt"
 viewBox="0.00 0.00 504.00 211.00" xmlns="http://www.w3.org/2000/svg" xmlns:xlink="http://www.w3.org/1999/xlink">
<g id="graph0" class="graph" transform="scale(1 1) rotate(0) translate(4 207)">
<title>dependencies</title>
<polygon fill="#ffffff" stroke="transparent" points="-4,4 -4,-207 500,-207 500,4 -4,4"/>
<text text-anchor="start" x="227.0091" y="-42.4" font-family="sans-serif" font-weight="bold" font-size="14.00" fill="#000000">Legend</text>
<polygon fill="#ffffb3" stroke="transparent" points="14,-10 14,-30 34,-30 34,-10 14,-10"/>
<text text-anchor="start" x="37.629" y="-15.4" font-family="sans-serif" font-size="14.00" fill="#000000"> &#160;Declarations</text>
<polygon fill="#8dd3c7" stroke="transparent" points="127,-10 127,-30 147,-30 147,-10 127,-10"/>
<text text-anchor="start" x="150.7251" y="-15.4" font-family="sans-serif" font-size="14.00" fill="#000000"> &#160;Module</text>
<polygon fill="#80b1d3" stroke="transparent" points="213,-10 213,-30 233,-30 233,-10 213,-10"/>
<text text-anchor="start" x="236.7812" y="-15.4" font-family="sans-serif" font-size="14.00" fill="#000000"> &#160;Bootstrap</text>
<polygon fill="#fdb462" stroke="transparent" points="310,-10 310,-30 330,-30 330,-10 310,-10"/>
<text text-anchor="start" x="333.6732" y="-15.4" font-family="sans-serif" font-size="14.00" fill="#000000"> &#160;Providers</text>
<polygon fill="#fb8072" stroke="transparent" points="406,-10 406,-30 426,-30 426,-10 406,-10"/>
<text text-anchor="start" x="429.7258" y="-15.4" font-family="sans-serif" font-size="14.00" fill="#000000"> &#160;Exports</text>
<g id="clust1" class="cluster">
<title>cluster_ApiModule</title>
<polygon fill="none" stroke="#000000" stroke-dasharray="1,5" points="130.5,-70 130.5,-195 365.5,-195 365.5,-70 130.5,-70"/>
</g>
<g id="clust6" class="cluster">
<title>cluster_ApiModule_providers</title>
<polygon fill="none" stroke="#000000" points="138.5,-78 138.5,-130 357.5,-130 357.5,-78 138.5,-78"/>
</g>
<!-- LoginApi -->
<g id="node1" class="node">
<title>LoginApi</title>
<ellipse fill="#fdb462" stroke="#000000" cx="300.5" cy="-104" rx="48.6772" ry="18"/>
<text text-anchor="middle" x="300.5" y="-99.8" font-family="Times,serif" font-size="14.00" fill="#000000">LoginApi</text>
</g>
<!-- ApiModule -->
<g id="node3" class="node">
<title>ApiModule</title>
<polygon fill="#8dd3c7" stroke="#000000" points="285.5483,-187 282.5483,-191 261.5483,-191 258.5483,-187 205.4517,-187 205.4517,-151 285.5483,-151 285.5483,-187"/>
<text text-anchor="middle" x="245.5" y="-164.8" font-family="Times,serif" font-size="14.00" fill="#000000">ApiModule</text>
</g>
<!-- LoginApi&#45;&gt;ApiModule -->
<g id="edge1" class="edge">
<title>LoginApi&#45;&gt;ApiModule</title>
<path fill="none" stroke="#000000" d="M268.8425,-117.7848C268.8425,-117.7848 268.8425,-140.5475 268.8425,-140.5475"/>
<polygon fill="#000000" stroke="#000000" points="265.3426,-140.5474 268.8425,-150.5475 272.3426,-140.5475 265.3426,-140.5474"/>
</g>
<!-- UserApi -->
<g id="node2" class="node">
<title>UserApi</title>
<ellipse fill="#fdb462" stroke="#000000" cx="190.5" cy="-104" rx="43.9983" ry="18"/>
<text text-anchor="middle" x="190.5" y="-99.8" font-family="Times,serif" font-size="14.00" fill="#000000">UserApi</text>
</g>
<!-- UserApi&#45;&gt;ApiModule -->
<g id="edge2" class="edge">
<title>UserApi&#45;&gt;ApiModule</title>
<path fill="none" stroke="#000000" d="M219.7375,-117.468C219.7375,-117.468 219.7375,-140.8642 219.7375,-140.8642"/>
<polygon fill="#000000" stroke="#000000" points="216.2376,-140.8641 219.7375,-150.8642 223.2376,-140.8642 216.2376,-140.8641"/>
</g>
</g>
</svg>
