<?xml version="1.0" encoding="UTF-8" standalone="no"?>
<!DOCTYPE svg PUBLIC "-//W3C//DTD SVG 1.1//EN"
 "http://www.w3.org/Graphics/SVG/1.1/DTD/svg11.dtd">
<!-- Generated by graphviz version 2.40.1 (20161225.0304)
 -->
<!-- Title: dependencies Pages: 1 -->
<svg width="504pt" height="284pt"
 viewBox="0.00 0.00 504.00 284.00" xmlns="http://www.w3.org/2000/svg" xmlns:xlink="http://www.w3.org/1999/xlink">
<g id="graph0" class="graph" transform="scale(1 1) rotate(0) translate(4 280)">
<title>dependencies</title>
<polygon fill="#ffffff" stroke="transparent" points="-4,4 -4,-280 500,-280 500,4 -4,4"/>
<text text-anchor="start" x="227.0091" y="-42.4" font-family="sans-serif" font-weight="bold" font-size="14.00" fill="#000000">Legend</text>
<polygon fill="#ffffb3" stroke="transparent" points="14,-10 14,-30 34,-30 34,-10 14,-10"/>
<text text-anchor="start" x="37.629" y="-15.4" font-family="sans-serif" font-size="14.00" fill="#000000"> &#160;Declarations</text>
<polygon fill="#8dd3c7" stroke="transparent" points="127,-10 127,-30 147,-30 147,-10 127,-10"/>
<text text-anchor="start" x="150.7251" y="-15.4" font-family="sans-serif" font-size="14.00" fill="#000000"> &#160;Module</text>
<polygon fill="#80b1d3" stroke="transparent" points="213,-10 213,-30 233,-30 233,-10 213,-10"/>
<text text-anchor="start" x="236.7812" y="-15.4" font-family="sans-serif" font-size="14.00" fill="#000000"> &#160;Bootstrap</text>
<polygon fill="#fdb462" stroke="transparent" points="310,-10 310,-30 330,-30 330,-10 310,-10"/>
<text text-anchor="start" x="333.6732" y="-15.4" font-family="sans-serif" font-size="14.00" fill="#000000"> &#160;Providers</text>
<polygon fill="#fb8072" stroke="transparent" points="406,-10 406,-30 426,-30 426,-10 406,-10"/>
<text text-anchor="start" x="429.7258" y="-15.4" font-family="sans-serif" font-size="14.00" fill="#000000"> &#160;Exports</text>
<g id="clust1" class="cluster">
<title>cluster_DateFormsModule</title>
<polygon fill="none" stroke="#000000" stroke-dasharray="1,5" points="61,-70 61,-268 435,-268 435,-70 61,-70"/>
</g>
<g id="clust2" class="cluster">
<title>cluster_DateFormsModule_declarations</title>
<polygon fill="none" stroke="#000000" points="73,-78 73,-130 424,-130 424,-78 73,-78"/>
</g>
<g id="clust6" class="cluster">
<title>cluster_DateFormsModule_exports</title>
<polygon fill="none" stroke="#000000" points="69,-208 69,-260 427,-260 427,-208 69,-208"/>
</g>
<!-- DatePickerComponent -->
<g id="node1" class="node">
<title>DatePickerComponent</title>
<polygon fill="#ffffb3" stroke="#000000" points="415.5226,-122 272.4774,-122 272.4774,-86 415.5226,-86 415.5226,-122"/>
<text text-anchor="middle" x="344" y="-99.8" font-family="Times,serif" font-size="14.00" fill="#000000">DatePickerComponent</text>
</g>
<!-- DateFormsModule -->
<g id="node3" class="node">
<title>DateFormsModule</title>
<polygon fill="#8dd3c7" stroke="#000000" points="228.7548,-187 225.7548,-191 204.7548,-191 201.7548,-187 107.2452,-187 107.2452,-151 228.7548,-151 228.7548,-187"/>
<text text-anchor="middle" x="168" y="-164.8" font-family="Times,serif" font-size="14.00" fill="#000000">DateFormsModule</text>
</g>
<!-- DatePickerComponent&#45;&gt;DateFormsModule -->
<g id="edge1" class="edge">
<title>DatePickerComponent&#45;&gt;DateFormsModule</title>
<path fill="none" stroke="#000000" d="M367.9203,-122.0225C367.9203,-139.3734 367.9203,-163 367.9203,-163 367.9203,-163 238.7969,-163 238.7969,-163"/>
<polygon fill="#000000" stroke="#000000" points="238.797,-159.5001 228.7969,-163 238.7969,-166.5001 238.797,-159.5001"/>
</g>
<!-- DateTimePickerComponent -->
<g id="node2" class="node">
<title>DateTimePickerComponent</title>
<polygon fill="#ffffb3" stroke="#000000" points="254.5702,-122 81.4298,-122 81.4298,-86 254.5702,-86 254.5702,-122"/>
<text text-anchor="middle" x="168" y="-99.8" font-family="Times,serif" font-size="14.00" fill="#000000">DateTimePickerComponent</text>
</g>
<!-- DateTimePickerComponent&#45;&gt;DateFormsModule -->
<g id="edge2" class="edge">
<title>DateTimePickerComponent&#45;&gt;DateFormsModule</title>
<path fill="none" stroke="#000000" d="M168,-122.1061C168,-122.1061 168,-140.991 168,-140.991"/>
<polygon fill="#000000" stroke="#000000" points="164.5001,-140.9909 168,-150.991 171.5001,-140.991 164.5001,-140.9909"/>
</g>
<!-- DatePickerComponent  -->
<g id="node4" class="node">
<title>DatePickerComponent </title>
<polygon fill="#fb8072" stroke="#000000" points="418.5218,-252 271.4782,-252 271.4782,-216 418.5218,-216 418.5218,-252"/>
<text text-anchor="middle" x="345" y="-229.8" font-family="Times,serif" font-size="14.00" fill="#000000">DatePickerComponent </text>
</g>
<!-- DateFormsModule&#45;&gt;DatePickerComponent  -->
<g id="edge3" class="edge">
<title>DateFormsModule&#45;&gt;DatePickerComponent </title>
<path fill="none" stroke="#000000" stroke-dasharray="5,2" d="M228.9804,-175C271.2901,-175 320.0797,-175 320.0797,-175 320.0797,-175 320.0797,-205.9775 320.0797,-205.9775"/>
<polygon fill="#000000" stroke="#000000" points="316.5798,-205.9774 320.0797,-215.9775 323.5798,-205.9775 316.5798,-205.9774"/>
</g>
<!-- DateTimePickerComponent  -->
<g id="node5" class="node">
<title>DateTimePickerComponent </title>
<polygon fill="#fb8072" stroke="#000000" points="253.0707,-252 76.9293,-252 76.9293,-216 253.0707,-216 253.0707,-252"/>
<text text-anchor="middle" x="165" y="-229.8" font-family="Times,serif" font-size="14.00" fill="#000000">DateTimePickerComponent </text>
</g>
<!-- DateFormsModule&#45;&gt;DateTimePickerComponent  -->
<g id="edge4" class="edge">
<title>DateFormsModule&#45;&gt;DateTimePickerComponent </title>
<path fill="none" stroke="#000000" stroke-dasharray="5,2" d="M168,-187.1061C168,-187.1061 168,-205.991 168,-205.991"/>
<polygon fill="#000000" stroke="#000000" points="164.5001,-205.9909 168,-215.991 171.5001,-205.991 164.5001,-205.9909"/>
</g>
</g>
</svg>
