<?xml version="1.0" encoding="UTF-8" standalone="no"?>
<!DOCTYPE svg PUBLIC "-//W3C//DTD SVG 1.1//EN"
 "http://www.w3.org/Graphics/SVG/1.1/DTD/svg11.dtd">
<!-- Generated by graphviz version 2.40.1 (20161225.0304)
 -->
<!-- Title: dependencies Pages: 1 -->
<svg width="1284pt" height="284pt"
 viewBox="0.00 0.00 1284.00 284.00" xmlns="http://www.w3.org/2000/svg" xmlns:xlink="http://www.w3.org/1999/xlink">
<g id="graph0" class="graph" transform="scale(1 1) rotate(0) translate(4 280)">
<title>dependencies</title>
<polygon fill="#ffffff" stroke="transparent" points="-4,4 -4,-280 1280,-280 1280,4 -4,4"/>
<text text-anchor="start" x="617.0091" y="-42.4" font-family="sans-serif" font-weight="bold" font-size="14.00" fill="#000000">Legend</text>
<polygon fill="#ffffb3" stroke="transparent" points="404,-10 404,-30 424,-30 424,-10 404,-10"/>
<text text-anchor="start" x="427.629" y="-15.4" font-family="sans-serif" font-size="14.00" fill="#000000"> &#160;Declarations</text>
<polygon fill="#8dd3c7" stroke="transparent" points="517,-10 517,-30 537,-30 537,-10 517,-10"/>
<text text-anchor="start" x="540.7251" y="-15.4" font-family="sans-serif" font-size="14.00" fill="#000000"> &#160;Module</text>
<polygon fill="#80b1d3" stroke="transparent" points="603,-10 603,-30 623,-30 623,-10 603,-10"/>
<text text-anchor="start" x="626.7812" y="-15.4" font-family="sans-serif" font-size="14.00" fill="#000000"> &#160;Bootstrap</text>
<polygon fill="#fdb462" stroke="transparent" points="700,-10 700,-30 720,-30 720,-10 700,-10"/>
<text text-anchor="start" x="723.6732" y="-15.4" font-family="sans-serif" font-size="14.00" fill="#000000"> &#160;Providers</text>
<polygon fill="#fb8072" stroke="transparent" points="796,-10 796,-30 816,-30 816,-10 796,-10"/>
<text text-anchor="start" x="819.7258" y="-15.4" font-family="sans-serif" font-size="14.00" fill="#000000"> &#160;Exports</text>
<g id="clust1" class="cluster">
<title>cluster_SharedModule</title>
<polygon fill="none" stroke="#000000" stroke-dasharray="1,5" points="8,-70 8,-268 1268,-268 1268,-70 8,-70"/>
</g>
<g id="clust3" class="cluster">
<title>cluster_SharedModule_imports</title>
<polygon fill="none" stroke="#000000" points="34,-78 34,-130 1248,-130 1248,-78 34,-78"/>
</g>
<g id="clust4" class="cluster">
<title>cluster_SharedModule_exports</title>
<polygon fill="none" stroke="#000000" points="16,-208 16,-260 1260,-260 1260,-208 16,-208"/>
</g>
<!-- ConfirmModule -->
<g id="node1" class="node">
<title>ConfirmModule</title>
<polygon fill="#8dd3c7" stroke="#000000" points="1240.4888,-122 1237.4888,-126 1216.4888,-126 1213.4888,-122 1133.5112,-122 1133.5112,-86 1240.4888,-86 1240.4888,-122"/>
<text text-anchor="middle" x="1187" y="-99.8" font-family="Times,serif" font-size="14.00" fill="#000000">ConfirmModule</text>
</g>
<!-- SharedModule -->
<g id="node9" class="node">
<title>SharedModule</title>
<polygon fill="#8dd3c7" stroke="#000000" points="601.4231,-187 598.4231,-191 577.4231,-191 574.4231,-187 502.5769,-187 502.5769,-151 601.4231,-151 601.4231,-187"/>
<text text-anchor="middle" x="552" y="-164.8" font-family="Times,serif" font-size="14.00" fill="#000000">SharedModule</text>
</g>
<!-- ConfirmModule&#45;&gt;SharedModule -->
<g id="edge1" class="edge">
<title>ConfirmModule&#45;&gt;SharedModule</title>
<path fill="none" stroke="#000000" d="M1137.6306,-122.2222C1137.6306,-140.8285 1137.6306,-167 1137.6306,-167 1137.6306,-167 611.4258,-167 611.4258,-167"/>
<polygon fill="#000000" stroke="#000000" points="611.4259,-163.5001 601.4258,-167 611.4258,-170.5001 611.4259,-163.5001"/>
</g>
<!-- CustomPaginationModule -->
<g id="node2" class="node">
<title>CustomPaginationModule</title>
<polygon fill="#8dd3c7" stroke="#000000" points="1115.4958,-122 1112.4958,-126 1091.4958,-126 1088.4958,-122 952.5042,-122 952.5042,-86 1115.4958,-86 1115.4958,-122"/>
<text text-anchor="middle" x="1034" y="-99.8" font-family="Times,serif" font-size="14.00" fill="#000000">CustomPaginationModule</text>
</g>
<!-- CustomPaginationModule&#45;&gt;SharedModule -->
<g id="edge2" class="edge">
<title>CustomPaginationModule&#45;&gt;SharedModule</title>
<path fill="none" stroke="#000000" d="M1062.916,-122.0225C1062.916,-139.3734 1062.916,-163 1062.916,-163 1062.916,-163 611.453,-163 611.453,-163"/>
<polygon fill="#000000" stroke="#000000" points="611.453,-159.5001 601.453,-163 611.453,-166.5001 611.453,-159.5001"/>
</g>
<!-- DateInputModule -->
<g id="node3" class="node">
<title>DateInputModule</title>
<polygon fill="#8dd3c7" stroke="#000000" points="934.5284,-122 931.5284,-126 910.5284,-126 907.5284,-122 819.4716,-122 819.4716,-86 934.5284,-86 934.5284,-122"/>
<text text-anchor="middle" x="877" y="-99.8" font-family="Times,serif" font-size="14.00" fill="#000000">DateInputModule</text>
</g>
<!-- DateInputModule&#45;&gt;SharedModule -->
<g id="edge3" class="edge">
<title>DateInputModule&#45;&gt;SharedModule</title>
<path fill="none" stroke="#000000" d="M896.6712,-122.0091C896.6712,-138.0494 896.6712,-159 896.6712,-159 896.6712,-159 611.383,-159 611.383,-159"/>
<polygon fill="#000000" stroke="#000000" points="611.383,-155.5001 601.383,-159 611.3829,-162.5001 611.383,-155.5001"/>
</g>
<!-- DropdownPageLinesModule -->
<g id="node4" class="node">
<title>DropdownPageLinesModule</title>
<polygon fill="#8dd3c7" stroke="#000000" points="800.738,-122 797.738,-126 776.738,-126 773.738,-122 623.262,-122 623.262,-86 800.738,-86 800.738,-122"/>
<text text-anchor="middle" x="712" y="-99.8" font-family="Times,serif" font-size="14.00" fill="#000000">DropdownPageLinesModule</text>
</g>
<!-- DropdownPageLinesModule&#45;&gt;SharedModule -->
<g id="edge4" class="edge">
<title>DropdownPageLinesModule&#45;&gt;SharedModule</title>
<path fill="none" stroke="#000000" d="M741.623,-122.1243C741.623,-136.7832 741.623,-155 741.623,-155 741.623,-155 611.3262,-155 611.3262,-155"/>
<polygon fill="#000000" stroke="#000000" points="611.3262,-151.5001 601.3262,-155 611.3262,-158.5001 611.3262,-151.5001"/>
</g>
<!-- ErrorLabelModule -->
<g id="node5" class="node">
<title>ErrorLabelModule</title>
<polygon fill="#8dd3c7" stroke="#000000" points="605.4566,-122 602.4566,-126 581.4566,-126 578.4566,-122 484.5434,-122 484.5434,-86 605.4566,-86 605.4566,-122"/>
<text text-anchor="middle" x="545" y="-99.8" font-family="Times,serif" font-size="14.00" fill="#000000">ErrorLabelModule</text>
</g>
<!-- ErrorLabelModule&#45;&gt;SharedModule -->
<g id="edge5" class="edge">
<title>ErrorLabelModule&#45;&gt;SharedModule</title>
<path fill="none" stroke="#000000" d="M552,-122.1061C552,-122.1061 552,-140.991 552,-140.991"/>
<polygon fill="#000000" stroke="#000000" points="548.5001,-140.9909 552,-150.991 555.5001,-140.991 548.5001,-140.9909"/>
</g>
<!-- PageHeaderModule -->
<g id="node6" class="node">
<title>PageHeaderModule</title>
<polygon fill="#8dd3c7" stroke="#000000" points="466.6727,-122 463.6727,-126 442.6727,-126 439.6727,-122 339.3273,-122 339.3273,-86 466.6727,-86 466.6727,-122"/>
<text text-anchor="middle" x="403" y="-99.8" font-family="Times,serif" font-size="14.00" fill="#000000">PageHeaderModule</text>
</g>
<!-- PageHeaderModule&#45;&gt;SharedModule -->
<g id="edge6" class="edge">
<title>PageHeaderModule&#45;&gt;SharedModule</title>
<path fill="none" stroke="#000000" d="M420.0288,-122.2396C420.0288,-137.5706 420.0288,-157 420.0288,-157 420.0288,-157 492.4833,-157 492.4833,-157"/>
<polygon fill="#000000" stroke="#000000" points="492.4833,-160.5001 502.4833,-157 492.4833,-153.5001 492.4833,-160.5001"/>
</g>
<!-- QuestionTooltipModule -->
<g id="node7" class="node">
<title>QuestionTooltipModule</title>
<polygon fill="#8dd3c7" stroke="#000000" points="321.8215,-122 318.8215,-126 297.8215,-126 294.8215,-122 170.1785,-122 170.1785,-86 321.8215,-86 321.8215,-122"/>
<text text-anchor="middle" x="246" y="-99.8" font-family="Times,serif" font-size="14.00" fill="#000000">QuestionTooltipModule</text>
</g>
<!-- QuestionTooltipModule&#45;&gt;SharedModule -->
<g id="edge7" class="edge">
<title>QuestionTooltipModule&#45;&gt;SharedModule</title>
<path fill="none" stroke="#000000" d="M316.5356,-122.0336C316.5356,-139.0597 316.5356,-162 316.5356,-162 316.5356,-162 492.6389,-162 492.6389,-162"/>
<polygon fill="#000000" stroke="#000000" points="492.639,-165.5001 502.6389,-162 492.6389,-158.5001 492.639,-165.5001"/>
</g>
<!-- RequiredModule -->
<g id="node8" class="node">
<title>RequiredModule</title>
<polygon fill="#8dd3c7" stroke="#000000" points="152.3669,-122 149.3669,-126 128.3669,-126 125.3669,-122 41.6331,-122 41.6331,-86 152.3669,-86 152.3669,-122"/>
<text text-anchor="middle" x="97" y="-99.8" font-family="Times,serif" font-size="14.00" fill="#000000">RequiredModule</text>
</g>
<!-- RequiredModule&#45;&gt;SharedModule -->
<g id="edge8" class="edge">
<title>RequiredModule&#45;&gt;SharedModule</title>
<path fill="none" stroke="#000000" d="M145.3084,-122.2222C145.3084,-140.8285 145.3084,-167 145.3084,-167 145.3084,-167 492.5382,-167 492.5382,-167"/>
<polygon fill="#000000" stroke="#000000" points="492.5383,-170.5001 502.5382,-167 492.5382,-163.5001 492.5383,-170.5001"/>
</g>
<!-- ConfirmModule  -->
<g id="node10" class="node">
<title>ConfirmModule </title>
<polygon fill="#fb8072" stroke="#000000" points="1252.4899,-252 1141.5101,-252 1141.5101,-216 1252.4899,-216 1252.4899,-252"/>
<text text-anchor="middle" x="1197" y="-229.8" font-family="Times,serif" font-size="14.00" fill="#000000">ConfirmModule </text>
</g>
<!-- SharedModule&#45;&gt;ConfirmModule  -->
<g id="edge9" class="edge">
<title>SharedModule&#45;&gt;ConfirmModule </title>
<path fill="none" stroke="#000000" stroke-dasharray="5,2" d="M601.3542,-171C751.2668,-171 1191.125,-171 1191.125,-171 1191.125,-171 1191.125,-205.7778 1191.125,-205.7778"/>
<polygon fill="#000000" stroke="#000000" points="1187.6251,-205.7778 1191.125,-215.7778 1194.6251,-205.7778 1187.6251,-205.7778"/>
</g>
<!-- CustomPaginationModule  -->
<g id="node11" class="node">
<title>CustomPaginationModule </title>
<polygon fill="#fb8072" stroke="#000000" points="1124.4965,-252 957.5035,-252 957.5035,-216 1124.4965,-216 1124.4965,-252"/>
<text text-anchor="middle" x="1041" y="-229.8" font-family="Times,serif" font-size="14.00" fill="#000000">CustomPaginationModule </text>
</g>
<!-- SharedModule&#45;&gt;CustomPaginationModule  -->
<g id="edge10" class="edge">
<title>SharedModule&#45;&gt;CustomPaginationModule </title>
<path fill="none" stroke="#000000" stroke-dasharray="5,2" d="M601.4852,-175C720.0004,-175 1010.334,-175 1010.334,-175 1010.334,-175 1010.334,-205.9775 1010.334,-205.9775"/>
<polygon fill="#000000" stroke="#000000" points="1006.8341,-205.9774 1010.334,-215.9775 1013.8341,-205.9775 1006.8341,-205.9774"/>
</g>
<!-- DateInputModule  -->
<g id="node12" class="node">
<title>DateInputModule </title>
<polygon fill="#fb8072" stroke="#000000" points="939.5274,-252 820.4726,-252 820.4726,-216 939.5274,-216 939.5274,-252"/>
<text text-anchor="middle" x="880" y="-229.8" font-family="Times,serif" font-size="14.00" fill="#000000">DateInputModule </text>
</g>
<!-- SharedModule&#45;&gt;DateInputModule  -->
<g id="edge11" class="edge">
<title>SharedModule&#45;&gt;DateInputModule </title>
<path fill="none" stroke="#000000" stroke-dasharray="5,2" d="M601.2572,-179C687.9199,-179 858.5788,-179 858.5788,-179 858.5788,-179 858.5788,-205.9909 858.5788,-205.9909"/>
<polygon fill="#000000" stroke="#000000" points="855.0789,-205.9909 858.5788,-215.9909 862.0789,-205.991 855.0789,-205.9909"/>
</g>
<!-- DropdownPageLinesModule  -->
<g id="node13" class="node">
<title>DropdownPageLinesModule </title>
<polygon fill="#fb8072" stroke="#000000" points="802.738,-252 621.262,-252 621.262,-216 802.738,-216 802.738,-252"/>
<text text-anchor="middle" x="712" y="-229.8" font-family="Times,serif" font-size="14.00" fill="#000000">DropdownPageLinesModule </text>
</g>
<!-- SharedModule&#45;&gt;DropdownPageLinesModule  -->
<g id="edge12" class="edge">
<title>SharedModule&#45;&gt;DropdownPageLinesModule </title>
<path fill="none" stroke="#000000" stroke-dasharray="5,2" d="M601.29,-183C638.2105,-183 682.377,-183 682.377,-183 682.377,-183 682.377,-205.8757 682.377,-205.8757"/>
<polygon fill="#000000" stroke="#000000" points="678.8771,-205.8757 682.377,-215.8757 685.8771,-205.8757 678.8771,-205.8757"/>
</g>
<!-- ErrorLabelModule  -->
<g id="node14" class="node">
<title>ErrorLabelModule </title>
<polygon fill="#fb8072" stroke="#000000" points="603.4574,-252 478.5426,-252 478.5426,-216 603.4574,-216 603.4574,-252"/>
<text text-anchor="middle" x="541" y="-229.8" font-family="Times,serif" font-size="14.00" fill="#000000">ErrorLabelModule </text>
</g>
<!-- SharedModule&#45;&gt;ErrorLabelModule  -->
<g id="edge13" class="edge">
<title>SharedModule&#45;&gt;ErrorLabelModule </title>
<path fill="none" stroke="#000000" stroke-dasharray="5,2" d="M552,-187.1061C552,-187.1061 552,-205.991 552,-205.991"/>
<polygon fill="#000000" stroke="#000000" points="548.5001,-205.9909 552,-215.991 555.5001,-205.991 548.5001,-205.9909"/>
</g>
<!-- PageHeaderModule  -->
<g id="node15" class="node">
<title>PageHeaderModule </title>
<polygon fill="#fb8072" stroke="#000000" points="460.173,-252 329.827,-252 329.827,-216 460.173,-216 460.173,-252"/>
<text text-anchor="middle" x="395" y="-229.8" font-family="Times,serif" font-size="14.00" fill="#000000">PageHeaderModule </text>
</g>
<!-- SharedModule&#45;&gt;PageHeaderModule  -->
<g id="edge14" class="edge">
<title>SharedModule&#45;&gt;PageHeaderModule </title>
<path fill="none" stroke="#000000" stroke-dasharray="5,2" d="M502.6318,-182C451.7238,-182 379.7212,-182 379.7212,-182 379.7212,-182 379.7212,-205.8129 379.7212,-205.8129"/>
<polygon fill="#000000" stroke="#000000" points="376.2213,-205.8129 379.7212,-215.8129 383.2213,-205.813 376.2213,-205.8129"/>
</g>
<!-- QuestionTooltipModule  -->
<g id="node16" class="node">
<title>QuestionTooltipModule </title>
<polygon fill="#fb8072" stroke="#000000" points="311.3213,-252 156.6787,-252 156.6787,-216 311.3213,-216 311.3213,-252"/>
<text text-anchor="middle" x="234" y="-229.8" font-family="Times,serif" font-size="14.00" fill="#000000">QuestionTooltipModule </text>
</g>
<!-- SharedModule&#45;&gt;QuestionTooltipModule  -->
<g id="edge15" class="edge">
<title>SharedModule&#45;&gt;QuestionTooltipModule </title>
<path fill="none" stroke="#000000" stroke-dasharray="5,2" d="M502.7013,-177C414.9725,-177 240.875,-177 240.875,-177 240.875,-177 240.875,-205.9648 240.875,-205.9648"/>
<polygon fill="#000000" stroke="#000000" points="237.3751,-205.9648 240.875,-215.9648 244.3751,-205.9649 237.3751,-205.9648"/>
</g>
<!-- RequiredModule  -->
<g id="node17" class="node">
<title>RequiredModule </title>
<polygon fill="#fb8072" stroke="#000000" points="138.3674,-252 23.6326,-252 23.6326,-216 138.3674,-216 138.3674,-252"/>
<text text-anchor="middle" x="81" y="-229.8" font-family="Times,serif" font-size="14.00" fill="#000000">RequiredModule </text>
</g>
<!-- SharedModule&#45;&gt;RequiredModule  -->
<g id="edge16" class="edge">
<title>SharedModule&#45;&gt;RequiredModule </title>
<path fill="none" stroke="#000000" stroke-dasharray="5,2" d="M502.5445,-172C383.3289,-172 89.875,-172 89.875,-172 89.875,-172 89.875,-205.7333 89.875,-205.7333"/>
<polygon fill="#000000" stroke="#000000" points="86.3751,-205.7333 89.875,-215.7333 93.3751,-205.7333 86.3751,-205.7333"/>
</g>
</g>
</svg>
