<?xml version="1.0" encoding="UTF-8" standalone="no"?>
<!DOCTYPE svg PUBLIC "-//W3C//DTD SVG 1.1//EN"
 "http://www.w3.org/Graphics/SVG/1.1/DTD/svg11.dtd">
<!-- Generated by graphviz version 2.40.1 (20161225.0304)
 -->
<!-- Title: dependencies Pages: 1 -->
<svg width="996pt" height="211pt"
 viewBox="0.00 0.00 996.00 211.00" xmlns="http://www.w3.org/2000/svg" xmlns:xlink="http://www.w3.org/1999/xlink">
<g id="graph0" class="graph" transform="scale(1 1) rotate(0) translate(4 207)">
<title>dependencies</title>
<polygon fill="#ffffff" stroke="transparent" points="-4,4 -4,-207 992,-207 992,4 -4,4"/>
<text text-anchor="start" x="473.0091" y="-42.4" font-family="sans-serif" font-weight="bold" font-size="14.00" fill="#000000">Legend</text>
<polygon fill="#ffffb3" stroke="transparent" points="260,-10 260,-30 280,-30 280,-10 260,-10"/>
<text text-anchor="start" x="283.629" y="-15.4" font-family="sans-serif" font-size="14.00" fill="#000000"> &#160;Declarations</text>
<polygon fill="#8dd3c7" stroke="transparent" points="373,-10 373,-30 393,-30 393,-10 373,-10"/>
<text text-anchor="start" x="396.7251" y="-15.4" font-family="sans-serif" font-size="14.00" fill="#000000"> &#160;Module</text>
<polygon fill="#80b1d3" stroke="transparent" points="459,-10 459,-30 479,-30 479,-10 459,-10"/>
<text text-anchor="start" x="482.7812" y="-15.4" font-family="sans-serif" font-size="14.00" fill="#000000"> &#160;Bootstrap</text>
<polygon fill="#fdb462" stroke="transparent" points="556,-10 556,-30 576,-30 576,-10 556,-10"/>
<text text-anchor="start" x="579.6732" y="-15.4" font-family="sans-serif" font-size="14.00" fill="#000000"> &#160;Providers</text>
<polygon fill="#fb8072" stroke="transparent" points="652,-10 652,-30 672,-30 672,-10 652,-10"/>
<text text-anchor="start" x="675.7258" y="-15.4" font-family="sans-serif" font-size="14.00" fill="#000000"> &#160;Exports</text>
<g id="clust1" class="cluster">
<title>cluster_FeaturesModule</title>
<polygon fill="none" stroke="#000000" stroke-dasharray="1,5" points="8,-70 8,-195 980,-195 980,-70 8,-70"/>
</g>
<g id="clust2" class="cluster">
<title>cluster_FeaturesModule_declarations</title>
<polygon fill="none" stroke="#000000" points="359,-78 359,-130 972,-130 972,-78 359,-78"/>
</g>
<g id="clust7" class="cluster">
<title>cluster_FeaturesModule_imports</title>
<polygon fill="none" stroke="#000000" points="16,-78 16,-130 351,-130 351,-78 16,-78"/>
</g>
<!-- CollapseButtonComponent -->
<g id="node1" class="node">
<title>CollapseButtonComponent</title>
<polygon fill="#ffffb3" stroke="#000000" points="964.4424,-122 795.5576,-122 795.5576,-86 964.4424,-86 964.4424,-122"/>
<text text-anchor="middle" x="880" y="-99.8" font-family="Times,serif" font-size="14.00" fill="#000000">CollapseButtonComponent</text>
</g>
<!-- FeaturesModule -->
<g id="node5" class="node">
<title>FeaturesModule</title>
<polygon fill="#8dd3c7" stroke="#000000" points="552.472,-187 549.472,-191 528.472,-191 525.472,-187 445.528,-187 445.528,-151 552.472,-151 552.472,-187"/>
<text text-anchor="middle" x="499" y="-164.8" font-family="Times,serif" font-size="14.00" fill="#000000">FeaturesModule</text>
</g>
<!-- CollapseButtonComponent&#45;&gt;FeaturesModule -->
<g id="edge1" class="edge">
<title>CollapseButtonComponent&#45;&gt;FeaturesModule</title>
<path fill="none" stroke="#000000" d="M880,-122.2843C880,-143.3211 880,-175 880,-175 880,-175 562.7799,-175 562.7799,-175"/>
<polygon fill="#000000" stroke="#000000" points="562.7799,-171.5001 552.7799,-175 562.7799,-178.5001 562.7799,-171.5001"/>
</g>
<!-- FeaturesComponent -->
<g id="node2" class="node">
<title>FeaturesComponent</title>
<polygon fill="#ffffb3" stroke="#000000" points="777.2548,-122 648.7452,-122 648.7452,-86 777.2548,-86 777.2548,-122"/>
<text text-anchor="middle" x="713" y="-99.8" font-family="Times,serif" font-size="14.00" fill="#000000">FeaturesComponent</text>
</g>
<!-- FeaturesComponent&#45;&gt;FeaturesModule -->
<g id="edge2" class="edge">
<title>FeaturesComponent&#45;&gt;FeaturesModule</title>
<path fill="none" stroke="#000000" d="M713,-122.0225C713,-139.3734 713,-163 713,-163 713,-163 562.725,-163 562.725,-163"/>
<polygon fill="#000000" stroke="#000000" points="562.725,-159.5001 552.725,-163 562.725,-166.5001 562.725,-159.5001"/>
</g>
<!-- HeaderComponent -->
<g id="node3" class="node">
<title>HeaderComponent</title>
<polygon fill="#ffffb3" stroke="#000000" points="630.7437,-122 509.2563,-122 509.2563,-86 630.7437,-86 630.7437,-122"/>
<text text-anchor="middle" x="570" y="-99.8" font-family="Times,serif" font-size="14.00" fill="#000000">HeaderComponent</text>
</g>
<!-- HeaderComponent&#45;&gt;FeaturesModule -->
<g id="edge3" class="edge">
<title>HeaderComponent&#45;&gt;FeaturesModule</title>
<path fill="none" stroke="#000000" d="M530.8072,-122.1061C530.8072,-122.1061 530.8072,-140.991 530.8072,-140.991"/>
<polygon fill="#000000" stroke="#000000" points="527.3072,-140.9909 530.8072,-150.991 534.3072,-140.991 527.3072,-140.9909"/>
</g>
<!-- SidebarComponent -->
<g id="node4" class="node">
<title>SidebarComponent</title>
<polygon fill="#ffffb3" stroke="#000000" points="491.0954,-122 366.9046,-122 366.9046,-86 491.0954,-86 491.0954,-122"/>
<text text-anchor="middle" x="429" y="-99.8" font-family="Times,serif" font-size="14.00" fill="#000000">SidebarComponent</text>
</g>
<!-- SidebarComponent&#45;&gt;FeaturesModule -->
<g id="edge4" class="edge">
<title>SidebarComponent&#45;&gt;FeaturesModule</title>
<path fill="none" stroke="#000000" d="M468.2809,-122.1061C468.2809,-122.1061 468.2809,-140.991 468.2809,-140.991"/>
<polygon fill="#000000" stroke="#000000" points="464.7809,-140.9909 468.2809,-150.991 471.7809,-140.991 464.7809,-140.9909"/>
</g>
<!-- FeaturesRoutingModule -->
<g id="node6" class="node">
<title>FeaturesRoutingModule</title>
<polygon fill="#8dd3c7" stroke="#000000" points="343.0898,-122 340.0898,-126 319.0898,-126 316.0898,-122 190.9102,-122 190.9102,-86 343.0898,-86 343.0898,-122"/>
<text text-anchor="middle" x="267" y="-99.8" font-family="Times,serif" font-size="14.00" fill="#000000">FeaturesRoutingModule</text>
</g>
<!-- FeaturesRoutingModule&#45;&gt;FeaturesModule -->
<g id="edge5" class="edge">
<title>FeaturesRoutingModule&#45;&gt;FeaturesModule</title>
<path fill="none" stroke="#000000" d="M267,-122.0225C267,-139.3734 267,-163 267,-163 267,-163 435.4832,-163 435.4832,-163"/>
<polygon fill="#000000" stroke="#000000" points="435.4832,-166.5001 445.4832,-163 435.4832,-159.5001 435.4832,-166.5001"/>
</g>
<!-- FeaturesServiceModule -->
<g id="node7" class="node">
<title>FeaturesServiceModule</title>
<polygon fill="#8dd3c7" stroke="#000000" points="172.4496,-122 169.4496,-126 148.4496,-126 145.4496,-122 23.5504,-122 23.5504,-86 172.4496,-86 172.4496,-122"/>
<text text-anchor="middle" x="98" y="-99.8" font-family="Times,serif" font-size="14.00" fill="#000000">FeaturesServiceModule</text>
</g>
<!-- FeaturesServiceModule&#45;&gt;FeaturesModule -->
<g id="edge6" class="edge">
<title>FeaturesServiceModule&#45;&gt;FeaturesModule</title>
<path fill="none" stroke="#000000" d="M98,-122.2843C98,-143.3211 98,-175 98,-175 98,-175 435.3354,-175 435.3354,-175"/>
<polygon fill="#000000" stroke="#000000" points="435.3355,-178.5001 445.3354,-175 435.3354,-171.5001 435.3355,-178.5001"/>
</g>
</g>
</svg>
