<?xml version="1.0" encoding="UTF-8" standalone="no"?>
<!DOCTYPE svg PUBLIC "-//W3C//DTD SVG 1.1//EN"
 "http://www.w3.org/Graphics/SVG/1.1/DTD/svg11.dtd">
<!-- Generated by graphviz version 2.40.1 (20161225.0304)
 -->
<!-- Title: dependencies Pages: 1 -->
<svg width="531pt" height="211pt"
 viewBox="0.00 0.00 531.00 211.00" xmlns="http://www.w3.org/2000/svg" xmlns:xlink="http://www.w3.org/1999/xlink">
<g id="graph0" class="graph" transform="scale(1 1) rotate(0) translate(4 207)">
<title>dependencies</title>
<polygon fill="#ffffff" stroke="transparent" points="-4,4 -4,-207 527,-207 527,4 -4,4"/>
<text text-anchor="start" x="240.5091" y="-42.4" font-family="sans-serif" font-weight="bold" font-size="14.00" fill="#000000">Legend</text>
<polygon fill="#ffffb3" stroke="transparent" points="27.5,-10 27.5,-30 47.5,-30 47.5,-10 27.5,-10"/>
<text text-anchor="start" x="51.129" y="-15.4" font-family="sans-serif" font-size="14.00" fill="#000000"> &#160;Declarations</text>
<polygon fill="#8dd3c7" stroke="transparent" points="140.5,-10 140.5,-30 160.5,-30 160.5,-10 140.5,-10"/>
<text text-anchor="start" x="164.2251" y="-15.4" font-family="sans-serif" font-size="14.00" fill="#000000"> &#160;Module</text>
<polygon fill="#80b1d3" stroke="transparent" points="226.5,-10 226.5,-30 246.5,-30 246.5,-10 226.5,-10"/>
<text text-anchor="start" x="250.2812" y="-15.4" font-family="sans-serif" font-size="14.00" fill="#000000"> &#160;Bootstrap</text>
<polygon fill="#fdb462" stroke="transparent" points="323.5,-10 323.5,-30 343.5,-30 343.5,-10 323.5,-10"/>
<text text-anchor="start" x="347.1732" y="-15.4" font-family="sans-serif" font-size="14.00" fill="#000000"> &#160;Providers</text>
<polygon fill="#fb8072" stroke="transparent" points="419.5,-10 419.5,-30 439.5,-30 439.5,-10 419.5,-10"/>
<text text-anchor="start" x="443.2258" y="-15.4" font-family="sans-serif" font-size="14.00" fill="#000000"> &#160;Exports</text>
<g id="clust1" class="cluster">
<title>cluster_BsComponentModule</title>
<polygon fill="none" stroke="#000000" stroke-dasharray="1,5" points="8,-70 8,-195 515,-195 515,-70 8,-70"/>
</g>
<g id="clust2" class="cluster">
<title>cluster_BsComponentModule_declarations</title>
<polygon fill="none" stroke="#000000" points="329,-78 329,-130 507,-130 507,-78 329,-78"/>
</g>
<g id="clust4" class="cluster">
<title>cluster_BsComponentModule_imports</title>
<polygon fill="none" stroke="#000000" points="16,-78 16,-130 321,-130 321,-78 16,-78"/>
</g>
<!-- BsComponentComponent -->
<g id="node1" class="node">
<title>BsComponentComponent</title>
<polygon fill="#ffffb3" stroke="#000000" points="498.9466,-122 337.0534,-122 337.0534,-86 498.9466,-86 498.9466,-122"/>
<text text-anchor="middle" x="418" y="-99.8" font-family="Times,serif" font-size="14.00" fill="#000000">BsComponentComponent</text>
</g>
<!-- BsComponentModule -->
<g id="node2" class="node">
<title>BsComponentModule</title>
<polygon fill="#8dd3c7" stroke="#000000" points="321.6638,-187 318.6638,-191 297.6638,-191 294.6638,-187 182.3362,-187 182.3362,-151 321.6638,-151 321.6638,-187"/>
<text text-anchor="middle" x="252" y="-164.8" font-family="Times,serif" font-size="14.00" fill="#000000">BsComponentModule</text>
</g>
<!-- BsComponentComponent&#45;&gt;BsComponentModule -->
<g id="edge1" class="edge">
<title>BsComponentComponent&#45;&gt;BsComponentModule</title>
<path fill="none" stroke="#000000" d="M336.9185,-104C325.4965,-104 317.5508,-104 317.5508,-104 317.5508,-104 317.5508,-140.8939 317.5508,-140.8939"/>
<polygon fill="#000000" stroke="#000000" points="314.0509,-140.8938 317.5508,-150.8939 321.0509,-140.8939 314.0509,-140.8938"/>
</g>
<!-- FileUploadModule -->
<g id="node3" class="node">
<title>FileUploadModule</title>
<polygon fill="#8dd3c7" stroke="#000000" points="313.0409,-122 310.0409,-126 289.0409,-126 286.0409,-122 190.9591,-122 190.9591,-86 313.0409,-86 313.0409,-122"/>
<text text-anchor="middle" x="252" y="-99.8" font-family="Times,serif" font-size="14.00" fill="#000000">FileUploadModule</text>
</g>
<!-- FileUploadModule&#45;&gt;BsComponentModule -->
<g id="edge2" class="edge">
<title>FileUploadModule&#45;&gt;BsComponentModule</title>
<path fill="none" stroke="#000000" d="M252,-122.1061C252,-122.1061 252,-140.991 252,-140.991"/>
<polygon fill="#000000" stroke="#000000" points="248.5001,-140.9909 252,-150.991 255.5001,-140.991 248.5001,-140.9909"/>
</g>
<!-- InputDropdownModule -->
<g id="node4" class="node">
<title>InputDropdownModule</title>
<polygon fill="#8dd3c7" stroke="#000000" points="172.4748,-122 169.4748,-126 148.4748,-126 145.4748,-122 23.5252,-122 23.5252,-86 172.4748,-86 172.4748,-122"/>
<text text-anchor="middle" x="98" y="-99.8" font-family="Times,serif" font-size="14.00" fill="#000000">InputDropdownModule</text>
</g>
<!-- InputDropdownModule&#45;&gt;BsComponentModule -->
<g id="edge3" class="edge">
<title>InputDropdownModule&#45;&gt;BsComponentModule</title>
<path fill="none" stroke="#000000" d="M172.629,-104C180.9211,-104 186.4492,-104 186.4492,-104 186.4492,-104 186.4492,-140.8939 186.4492,-140.8939"/>
<polygon fill="#000000" stroke="#000000" points="182.9492,-140.8938 186.4492,-150.8939 189.9492,-140.8939 182.9492,-140.8938"/>
</g>
</g>
</svg>
