<?xml version="1.0" encoding="UTF-8" standalone="no"?>
<!DOCTYPE svg PUBLIC "-//W3C//DTD SVG 1.1//EN"
 "http://www.w3.org/Graphics/SVG/1.1/DTD/svg11.dtd">
<!-- Generated by graphviz version 2.40.1 (20161225.0304)
 -->
<!-- Title: dependencies Pages: 1 -->
<svg width="504pt" height="211pt"
 viewBox="0.00 0.00 504.00 211.00" xmlns="http://www.w3.org/2000/svg" xmlns:xlink="http://www.w3.org/1999/xlink">
<g id="graph0" class="graph" transform="scale(1 1) rotate(0) translate(4 207)">
<title>dependencies</title>
<polygon fill="#ffffff" stroke="transparent" points="-4,4 -4,-207 500,-207 500,4 -4,4"/>
<text text-anchor="start" x="227.0091" y="-42.4" font-family="sans-serif" font-weight="bold" font-size="14.00" fill="#000000">Legend</text>
<polygon fill="#ffffb3" stroke="transparent" points="14,-10 14,-30 34,-30 34,-10 14,-10"/>
<text text-anchor="start" x="37.629" y="-15.4" font-family="sans-serif" font-size="14.00" fill="#000000"> &#160;Declarations</text>
<polygon fill="#8dd3c7" stroke="transparent" points="127,-10 127,-30 147,-30 147,-10 127,-10"/>
<text text-anchor="start" x="150.7251" y="-15.4" font-family="sans-serif" font-size="14.00" fill="#000000"> &#160;Module</text>
<polygon fill="#80b1d3" stroke="transparent" points="213,-10 213,-30 233,-30 233,-10 213,-10"/>
<text text-anchor="start" x="236.7812" y="-15.4" font-family="sans-serif" font-size="14.00" fill="#000000"> &#160;Bootstrap</text>
<polygon fill="#fdb462" stroke="transparent" points="310,-10 310,-30 330,-30 330,-10 310,-10"/>
<text text-anchor="start" x="333.6732" y="-15.4" font-family="sans-serif" font-size="14.00" fill="#000000"> &#160;Providers</text>
<polygon fill="#fb8072" stroke="transparent" points="406,-10 406,-30 426,-30 426,-10 406,-10"/>
<text text-anchor="start" x="429.7258" y="-15.4" font-family="sans-serif" font-size="14.00" fill="#000000"> &#160;Exports</text>
<g id="clust1" class="cluster">
<title>cluster_BsComponentModule</title>
<polygon fill="none" stroke="#000000" stroke-dasharray="1,5" points="65,-70 65,-195 431,-195 431,-70 65,-70"/>
</g>
<g id="clust2" class="cluster">
<title>cluster_BsComponentModule_declarations</title>
<polygon fill="none" stroke="#000000" points="245,-78 245,-130 423,-130 423,-78 245,-78"/>
</g>
<g id="clust4" class="cluster">
<title>cluster_BsComponentModule_imports</title>
<polygon fill="none" stroke="#000000" points="73,-78 73,-130 237,-130 237,-78 73,-78"/>
</g>
<!-- BsComponentComponent -->
<g id="node1" class="node">
<title>BsComponentComponent</title>
<polygon fill="#ffffb3" stroke="#000000" points="414.9466,-122 253.0534,-122 253.0534,-86 414.9466,-86 414.9466,-122"/>
<text text-anchor="middle" x="334" y="-99.8" font-family="Times,serif" font-size="14.00" fill="#000000">BsComponentComponent</text>
</g>
<!-- BsComponentModule -->
<g id="node2" class="node">
<title>BsComponentModule</title>
<polygon fill="#8dd3c7" stroke="#000000" points="313.6638,-187 310.6638,-191 289.6638,-191 286.6638,-187 174.3362,-187 174.3362,-151 313.6638,-151 313.6638,-187"/>
<text text-anchor="middle" x="244" y="-164.8" font-family="Times,serif" font-size="14.00" fill="#000000">BsComponentModule</text>
</g>
<!-- BsComponentComponent&#45;&gt;BsComponentModule -->
<g id="edge1" class="edge">
<title>BsComponentComponent&#45;&gt;BsComponentModule</title>
<path fill="none" stroke="#000000" d="M283.5544,-122.1061C283.5544,-122.1061 283.5544,-140.991 283.5544,-140.991"/>
<polygon fill="#000000" stroke="#000000" points="280.0544,-140.9909 283.5544,-150.991 287.0544,-140.991 280.0544,-140.9909"/>
</g>
<!-- InputDropdownModule -->
<g id="node3" class="node">
<title>InputDropdownModule</title>
<polygon fill="#8dd3c7" stroke="#000000" points="229.4748,-122 226.4748,-126 205.4748,-126 202.4748,-122 80.5252,-122 80.5252,-86 229.4748,-86 229.4748,-122"/>
<text text-anchor="middle" x="155" y="-99.8" font-family="Times,serif" font-size="14.00" fill="#000000">InputDropdownModule</text>
</g>
<!-- InputDropdownModule&#45;&gt;BsComponentModule -->
<g id="edge2" class="edge">
<title>InputDropdownModule&#45;&gt;BsComponentModule</title>
<path fill="none" stroke="#000000" d="M201.8279,-122.1061C201.8279,-122.1061 201.8279,-140.991 201.8279,-140.991"/>
<polygon fill="#000000" stroke="#000000" points="198.3279,-140.9909 201.8279,-150.991 205.3279,-140.991 198.3279,-140.9909"/>
</g>
</g>
</svg>
