<?xml version="1.0" encoding="UTF-8" standalone="no"?>
<!DOCTYPE svg PUBLIC "-//W3C//DTD SVG 1.1//EN"
 "http://www.w3.org/Graphics/SVG/1.1/DTD/svg11.dtd">
<!-- Generated by graphviz version 2.40.1 (20161225.0304)
 -->
<!-- Title: dependencies Pages: 1 -->
<svg width="861pt" height="211pt"
 viewBox="0.00 0.00 861.00 211.00" xmlns="http://www.w3.org/2000/svg" xmlns:xlink="http://www.w3.org/1999/xlink">
<g id="graph0" class="graph" transform="scale(1 1) rotate(0) translate(4 207)">
<title>dependencies</title>
<polygon fill="#ffffff" stroke="transparent" points="-4,4 -4,-207 857,-207 857,4 -4,4"/>
<text text-anchor="start" x="405.5091" y="-42.4" font-family="sans-serif" font-weight="bold" font-size="14.00" fill="#000000">Legend</text>
<polygon fill="#ffffb3" stroke="transparent" points="192.5,-10 192.5,-30 212.5,-30 212.5,-10 192.5,-10"/>
<text text-anchor="start" x="216.129" y="-15.4" font-family="sans-serif" font-size="14.00" fill="#000000"> &#160;Declarations</text>
<polygon fill="#8dd3c7" stroke="transparent" points="305.5,-10 305.5,-30 325.5,-30 325.5,-10 305.5,-10"/>
<text text-anchor="start" x="329.2251" y="-15.4" font-family="sans-serif" font-size="14.00" fill="#000000"> &#160;Module</text>
<polygon fill="#80b1d3" stroke="transparent" points="391.5,-10 391.5,-30 411.5,-30 411.5,-10 391.5,-10"/>
<text text-anchor="start" x="415.2812" y="-15.4" font-family="sans-serif" font-size="14.00" fill="#000000"> &#160;Bootstrap</text>
<polygon fill="#fdb462" stroke="transparent" points="488.5,-10 488.5,-30 508.5,-30 508.5,-10 488.5,-10"/>
<text text-anchor="start" x="512.1732" y="-15.4" font-family="sans-serif" font-size="14.00" fill="#000000"> &#160;Providers</text>
<polygon fill="#fb8072" stroke="transparent" points="584.5,-10 584.5,-30 604.5,-30 604.5,-10 584.5,-10"/>
<text text-anchor="start" x="608.2258" y="-15.4" font-family="sans-serif" font-size="14.00" fill="#000000"> &#160;Exports</text>
<g id="clust1" class="cluster">
<title>cluster_BsComponentModule</title>
<polygon fill="none" stroke="#000000" stroke-dasharray="1,5" points="8,-70 8,-195 845,-195 845,-70 8,-70"/>
</g>
<g id="clust2" class="cluster">
<title>cluster_BsComponentModule_declarations</title>
<polygon fill="none" stroke="#000000" points="659,-78 659,-130 837,-130 837,-78 659,-78"/>
</g>
<g id="clust4" class="cluster">
<title>cluster_BsComponentModule_imports</title>
<polygon fill="none" stroke="#000000" points="16,-78 16,-130 651,-130 651,-78 16,-78"/>
</g>
<!-- BsComponentComponent -->
<g id="node1" class="node">
<title>BsComponentComponent</title>
<polygon fill="#ffffb3" stroke="#000000" points="828.9466,-122 667.0534,-122 667.0534,-86 828.9466,-86 828.9466,-122"/>
<text text-anchor="middle" x="748" y="-99.8" font-family="Times,serif" font-size="14.00" fill="#000000">BsComponentComponent</text>
</g>
<!-- BsComponentModule -->
<g id="node2" class="node">
<title>BsComponentModule</title>
<polygon fill="#8dd3c7" stroke="#000000" points="481.6638,-187 478.6638,-191 457.6638,-191 454.6638,-187 342.3362,-187 342.3362,-151 481.6638,-151 481.6638,-187"/>
<text text-anchor="middle" x="412" y="-164.8" font-family="Times,serif" font-size="14.00" fill="#000000">BsComponentModule</text>
</g>
<!-- BsComponentComponent&#45;&gt;BsComponentModule -->
<g id="edge1" class="edge">
<title>BsComponentComponent&#45;&gt;BsComponentModule</title>
<path fill="none" stroke="#000000" d="M748,-122.1061C748,-141.3391 748,-169 748,-169 748,-169 492.0276,-169 492.0276,-169"/>
<polygon fill="#000000" stroke="#000000" points="492.0277,-165.5001 482.0276,-169 492.0276,-172.5001 492.0277,-165.5001"/>
</g>
<!-- DateTimePickerModule -->
<g id="node3" class="node">
<title>DateTimePickerModule</title>
<polygon fill="#8dd3c7" stroke="#000000" points="642.7879,-122 639.7879,-126 618.7879,-126 615.7879,-122 491.2121,-122 491.2121,-86 642.7879,-86 642.7879,-122"/>
<text text-anchor="middle" x="567" y="-99.8" font-family="Times,serif" font-size="14.00" fill="#000000">DateTimePickerModule</text>
</g>
<!-- DateTimePickerModule&#45;&gt;BsComponentModule -->
<g id="edge2" class="edge">
<title>DateTimePickerModule&#45;&gt;BsComponentModule</title>
<path fill="none" stroke="#000000" d="M491.1363,-104C482.9681,-104 477.5509,-104 477.5509,-104 477.5509,-104 477.5509,-140.8939 477.5509,-140.8939"/>
<polygon fill="#000000" stroke="#000000" points="474.0509,-140.8938 477.5509,-150.8939 481.0509,-140.8939 474.0509,-140.8938"/>
</g>
<!-- FileUploadModule -->
<g id="node4" class="node">
<title>FileUploadModule</title>
<polygon fill="#8dd3c7" stroke="#000000" points="473.0409,-122 470.0409,-126 449.0409,-126 446.0409,-122 350.9591,-122 350.9591,-86 473.0409,-86 473.0409,-122"/>
<text text-anchor="middle" x="412" y="-99.8" font-family="Times,serif" font-size="14.00" fill="#000000">FileUploadModule</text>
</g>
<!-- FileUploadModule&#45;&gt;BsComponentModule -->
<g id="edge3" class="edge">
<title>FileUploadModule&#45;&gt;BsComponentModule</title>
<path fill="none" stroke="#000000" d="M412,-122.1061C412,-122.1061 412,-140.991 412,-140.991"/>
<polygon fill="#000000" stroke="#000000" points="408.5001,-140.9909 412,-150.991 415.5001,-140.991 408.5001,-140.9909"/>
</g>
<!-- InputDropdownModule -->
<g id="node5" class="node">
<title>InputDropdownModule</title>
<polygon fill="#8dd3c7" stroke="#000000" points="332.4748,-122 329.4748,-126 308.4748,-126 305.4748,-122 183.5252,-122 183.5252,-86 332.4748,-86 332.4748,-122"/>
<text text-anchor="middle" x="258" y="-99.8" font-family="Times,serif" font-size="14.00" fill="#000000">InputDropdownModule</text>
</g>
<!-- InputDropdownModule&#45;&gt;BsComponentModule -->
<g id="edge4" class="edge">
<title>InputDropdownModule&#45;&gt;BsComponentModule</title>
<path fill="none" stroke="#000000" d="M332.629,-104C340.9211,-104 346.4492,-104 346.4492,-104 346.4492,-104 346.4492,-140.8939 346.4492,-140.8939"/>
<polygon fill="#000000" stroke="#000000" points="342.9492,-140.8938 346.4492,-150.8939 349.9492,-140.8939 342.9492,-140.8938"/>
</g>
<!-- ReusableFormModule -->
<g id="node6" class="node">
<title>ReusableFormModule</title>
<polygon fill="#8dd3c7" stroke="#000000" points="165.6993,-122 162.6993,-126 141.6993,-126 138.6993,-122 24.3007,-122 24.3007,-86 165.6993,-86 165.6993,-122"/>
<text text-anchor="middle" x="95" y="-99.8" font-family="Times,serif" font-size="14.00" fill="#000000">ReusableFormModule</text>
</g>
<!-- ReusableFormModule&#45;&gt;BsComponentModule -->
<g id="edge5" class="edge">
<title>ReusableFormModule&#45;&gt;BsComponentModule</title>
<path fill="none" stroke="#000000" d="M95,-122.1061C95,-141.3391 95,-169 95,-169 95,-169 332.0406,-169 332.0406,-169"/>
<polygon fill="#000000" stroke="#000000" points="332.0406,-172.5001 342.0406,-169 332.0405,-165.5001 332.0406,-172.5001"/>
</g>
</g>
</svg>
