<?xml version="1.0" encoding="UTF-8" standalone="no"?>
<!DOCTYPE svg PUBLIC "-//W3C//DTD SVG 1.1//EN"
 "http://www.w3.org/Graphics/SVG/1.1/DTD/svg11.dtd">
<!-- Generated by graphviz version 2.40.1 (20161225.0304)
 -->
<!-- Title: dependencies Pages: 1 -->
<svg width="691pt" height="211pt"
 viewBox="0.00 0.00 691.00 211.00" xmlns="http://www.w3.org/2000/svg" xmlns:xlink="http://www.w3.org/1999/xlink">
<g id="graph0" class="graph" transform="scale(1 1) rotate(0) translate(4 207)">
<title>dependencies</title>
<polygon fill="#ffffff" stroke="transparent" points="-4,4 -4,-207 687,-207 687,4 -4,4"/>
<text text-anchor="start" x="320.5091" y="-42.4" font-family="sans-serif" font-weight="bold" font-size="14.00" fill="#000000">Legend</text>
<polygon fill="#ffffb3" stroke="transparent" points="107.5,-10 107.5,-30 127.5,-30 127.5,-10 107.5,-10"/>
<text text-anchor="start" x="131.129" y="-15.4" font-family="sans-serif" font-size="14.00" fill="#000000"> &#160;Declarations</text>
<polygon fill="#8dd3c7" stroke="transparent" points="220.5,-10 220.5,-30 240.5,-30 240.5,-10 220.5,-10"/>
<text text-anchor="start" x="244.2251" y="-15.4" font-family="sans-serif" font-size="14.00" fill="#000000"> &#160;Module</text>
<polygon fill="#80b1d3" stroke="transparent" points="306.5,-10 306.5,-30 326.5,-30 326.5,-10 306.5,-10"/>
<text text-anchor="start" x="330.2812" y="-15.4" font-family="sans-serif" font-size="14.00" fill="#000000"> &#160;Bootstrap</text>
<polygon fill="#fdb462" stroke="transparent" points="403.5,-10 403.5,-30 423.5,-30 423.5,-10 403.5,-10"/>
<text text-anchor="start" x="427.1732" y="-15.4" font-family="sans-serif" font-size="14.00" fill="#000000"> &#160;Providers</text>
<polygon fill="#fb8072" stroke="transparent" points="499.5,-10 499.5,-30 519.5,-30 519.5,-10 499.5,-10"/>
<text text-anchor="start" x="523.2258" y="-15.4" font-family="sans-serif" font-size="14.00" fill="#000000"> &#160;Exports</text>
<g id="clust1" class="cluster">
<title>cluster_BsComponentModule</title>
<polygon fill="none" stroke="#000000" stroke-dasharray="1,5" points="8,-70 8,-195 675,-195 675,-70 8,-70"/>
</g>
<g id="clust2" class="cluster">
<title>cluster_BsComponentModule_declarations</title>
<polygon fill="none" stroke="#000000" points="489,-78 489,-130 667,-130 667,-78 489,-78"/>
</g>
<g id="clust4" class="cluster">
<title>cluster_BsComponentModule_imports</title>
<polygon fill="none" stroke="#000000" points="16,-78 16,-130 481,-130 481,-78 16,-78"/>
</g>
<!-- BsComponentComponent -->
<g id="node1" class="node">
<title>BsComponentComponent</title>
<polygon fill="#ffffb3" stroke="#000000" points="658.9466,-122 497.0534,-122 497.0534,-86 658.9466,-86 658.9466,-122"/>
<text text-anchor="middle" x="578" y="-99.8" font-family="Times,serif" font-size="14.00" fill="#000000">BsComponentComponent</text>
</g>
<!-- BsComponentModule -->
<g id="node2" class="node">
<title>BsComponentModule</title>
<polygon fill="#8dd3c7" stroke="#000000" points="404.6638,-187 401.6638,-191 380.6638,-191 377.6638,-187 265.3362,-187 265.3362,-151 404.6638,-151 404.6638,-187"/>
<text text-anchor="middle" x="335" y="-164.8" font-family="Times,serif" font-size="14.00" fill="#000000">BsComponentModule</text>
</g>
<!-- BsComponentComponent&#45;&gt;BsComponentModule -->
<g id="edge1" class="edge">
<title>BsComponentComponent&#45;&gt;BsComponentModule</title>
<path fill="none" stroke="#000000" d="M578,-122.1061C578,-141.3391 578,-169 578,-169 578,-169 414.9597,-169 414.9597,-169"/>
<polygon fill="#000000" stroke="#000000" points="414.9597,-165.5001 404.9597,-169 414.9596,-172.5001 414.9597,-165.5001"/>
</g>
<!-- FileUploadModule -->
<g id="node3" class="node">
<title>FileUploadModule</title>
<polygon fill="#8dd3c7" stroke="#000000" points="473.0409,-122 470.0409,-126 449.0409,-126 446.0409,-122 350.9591,-122 350.9591,-86 473.0409,-86 473.0409,-122"/>
<text text-anchor="middle" x="412" y="-99.8" font-family="Times,serif" font-size="14.00" fill="#000000">FileUploadModule</text>
</g>
<!-- FileUploadModule&#45;&gt;BsComponentModule -->
<g id="edge2" class="edge">
<title>FileUploadModule&#45;&gt;BsComponentModule</title>
<path fill="none" stroke="#000000" d="M377.7809,-122.1061C377.7809,-122.1061 377.7809,-140.991 377.7809,-140.991"/>
<polygon fill="#000000" stroke="#000000" points="374.2809,-140.9909 377.7809,-150.991 381.2809,-140.991 374.2809,-140.9909"/>
</g>
<!-- InputDropdownModule -->
<g id="node4" class="node">
<title>InputDropdownModule</title>
<polygon fill="#8dd3c7" stroke="#000000" points="332.4748,-122 329.4748,-126 308.4748,-126 305.4748,-122 183.5252,-122 183.5252,-86 332.4748,-86 332.4748,-122"/>
<text text-anchor="middle" x="258" y="-99.8" font-family="Times,serif" font-size="14.00" fill="#000000">InputDropdownModule</text>
</g>
<!-- InputDropdownModule&#45;&gt;BsComponentModule -->
<g id="edge3" class="edge">
<title>InputDropdownModule&#45;&gt;BsComponentModule</title>
<path fill="none" stroke="#000000" d="M298.8279,-122.1061C298.8279,-122.1061 298.8279,-140.991 298.8279,-140.991"/>
<polygon fill="#000000" stroke="#000000" points="295.3279,-140.9909 298.8279,-150.991 302.3279,-140.991 295.3279,-140.9909"/>
</g>
<!-- ReusableFormModule -->
<g id="node5" class="node">
<title>ReusableFormModule</title>
<polygon fill="#8dd3c7" stroke="#000000" points="165.6993,-122 162.6993,-126 141.6993,-126 138.6993,-122 24.3007,-122 24.3007,-86 165.6993,-86 165.6993,-122"/>
<text text-anchor="middle" x="95" y="-99.8" font-family="Times,serif" font-size="14.00" fill="#000000">ReusableFormModule</text>
</g>
<!-- ReusableFormModule&#45;&gt;BsComponentModule -->
<g id="edge4" class="edge">
<title>ReusableFormModule&#45;&gt;BsComponentModule</title>
<path fill="none" stroke="#000000" d="M95,-122.1061C95,-141.3391 95,-169 95,-169 95,-169 255.2597,-169 255.2597,-169"/>
<polygon fill="#000000" stroke="#000000" points="255.2597,-172.5001 265.2597,-169 255.2596,-165.5001 255.2597,-172.5001"/>
</g>
</g>
</svg>
