<?xml version="1.0" encoding="UTF-8" standalone="no"?>
<!DOCTYPE svg PUBLIC "-//W3C//DTD SVG 1.1//EN"
 "http://www.w3.org/Graphics/SVG/1.1/DTD/svg11.dtd">
<!-- Generated by graphviz version 2.40.1 (20161225.0304)
 -->
<!-- Title: dependencies Pages: 1 -->
<svg width="928pt" height="211pt"
 viewBox="0.00 0.00 928.00 211.00" xmlns="http://www.w3.org/2000/svg" xmlns:xlink="http://www.w3.org/1999/xlink">
<g id="graph0" class="graph" transform="scale(1 1) rotate(0) translate(4 207)">
<title>dependencies</title>
<polygon fill="#ffffff" stroke="transparent" points="-4,4 -4,-207 924,-207 924,4 -4,4"/>
<text text-anchor="start" x="439.0091" y="-42.4" font-family="sans-serif" font-weight="bold" font-size="14.00" fill="#000000">Legend</text>
<polygon fill="#ffffb3" stroke="transparent" points="226,-10 226,-30 246,-30 246,-10 226,-10"/>
<text text-anchor="start" x="249.629" y="-15.4" font-family="sans-serif" font-size="14.00" fill="#000000"> &#160;Declarations</text>
<polygon fill="#8dd3c7" stroke="transparent" points="339,-10 339,-30 359,-30 359,-10 339,-10"/>
<text text-anchor="start" x="362.7251" y="-15.4" font-family="sans-serif" font-size="14.00" fill="#000000"> &#160;Module</text>
<polygon fill="#80b1d3" stroke="transparent" points="425,-10 425,-30 445,-30 445,-10 425,-10"/>
<text text-anchor="start" x="448.7812" y="-15.4" font-family="sans-serif" font-size="14.00" fill="#000000"> &#160;Bootstrap</text>
<polygon fill="#fdb462" stroke="transparent" points="522,-10 522,-30 542,-30 542,-10 522,-10"/>
<text text-anchor="start" x="545.6732" y="-15.4" font-family="sans-serif" font-size="14.00" fill="#000000"> &#160;Providers</text>
<polygon fill="#fb8072" stroke="transparent" points="618,-10 618,-30 638,-30 638,-10 618,-10"/>
<text text-anchor="start" x="641.7258" y="-15.4" font-family="sans-serif" font-size="14.00" fill="#000000"> &#160;Exports</text>
<g id="clust1" class="cluster">
<title>cluster_UserModule</title>
<polygon fill="none" stroke="#000000" stroke-dasharray="1,5" points="8,-70 8,-195 912,-195 912,-70 8,-70"/>
</g>
<g id="clust2" class="cluster">
<title>cluster_UserModule_declarations</title>
<polygon fill="none" stroke="#000000" points="434,-78 434,-130 904,-130 904,-78 434,-78"/>
</g>
<g id="clust6" class="cluster">
<title>cluster_UserModule_imports</title>
<polygon fill="none" stroke="#000000" points="16,-78 16,-130 426,-130 426,-78 16,-78"/>
</g>
<!-- UserDetailComponent -->
<g id="node1" class="node">
<title>UserDetailComponent</title>
<polygon fill="#ffffb3" stroke="#000000" points="895.9664,-122 754.0336,-122 754.0336,-86 895.9664,-86 895.9664,-122"/>
<text text-anchor="middle" x="825" y="-99.8" font-family="Times,serif" font-size="14.00" fill="#000000">UserDetailComponent</text>
</g>
<!-- UserModule -->
<g id="node4" class="node">
<title>UserModule</title>
<polygon fill="#8dd3c7" stroke="#000000" points="484.9762,-187 481.9762,-191 460.9762,-191 457.9762,-187 399.0238,-187 399.0238,-151 484.9762,-151 484.9762,-187"/>
<text text-anchor="middle" x="442" y="-164.8" font-family="Times,serif" font-size="14.00" fill="#000000">UserModule</text>
</g>
<!-- UserDetailComponent&#45;&gt;UserModule -->
<g id="edge1" class="edge">
<title>UserDetailComponent&#45;&gt;UserModule</title>
<path fill="none" stroke="#000000" d="M825,-122.2843C825,-143.3211 825,-175 825,-175 825,-175 495.1905,-175 495.1905,-175"/>
<polygon fill="#000000" stroke="#000000" points="495.1905,-171.5001 485.1905,-175 495.1904,-178.5001 495.1905,-171.5001"/>
</g>
<!-- UserListComponent -->
<g id="node2" class="node">
<title>UserListComponent</title>
<polygon fill="#ffffb3" stroke="#000000" points="735.538,-122 606.462,-122 606.462,-86 735.538,-86 735.538,-122"/>
<text text-anchor="middle" x="671" y="-99.8" font-family="Times,serif" font-size="14.00" fill="#000000">UserListComponent</text>
</g>
<!-- UserListComponent&#45;&gt;UserModule -->
<g id="edge2" class="edge">
<title>UserListComponent&#45;&gt;UserModule</title>
<path fill="none" stroke="#000000" d="M671,-122.0225C671,-139.3734 671,-163 671,-163 671,-163 495.0731,-163 495.0731,-163"/>
<polygon fill="#000000" stroke="#000000" points="495.0732,-159.5001 485.0731,-163 495.0731,-166.5001 495.0732,-159.5001"/>
</g>
<!-- UserSearchComponent -->
<g id="node3" class="node">
<title>UserSearchComponent</title>
<polygon fill="#ffffb3" stroke="#000000" points="587.8459,-122 442.1541,-122 442.1541,-86 587.8459,-86 587.8459,-122"/>
<text text-anchor="middle" x="515" y="-99.8" font-family="Times,serif" font-size="14.00" fill="#000000">UserSearchComponent</text>
</g>
<!-- UserSearchComponent&#45;&gt;UserModule -->
<g id="edge3" class="edge">
<title>UserSearchComponent&#45;&gt;UserModule</title>
<path fill="none" stroke="#000000" d="M463.5326,-122.1061C463.5326,-122.1061 463.5326,-140.991 463.5326,-140.991"/>
<polygon fill="#000000" stroke="#000000" points="460.0327,-140.9909 463.5326,-150.991 467.0327,-140.991 460.0327,-140.9909"/>
</g>
<!-- SharedModule -->
<g id="node5" class="node">
<title>SharedModule</title>
<polygon fill="#8dd3c7" stroke="#000000" points="418.4231,-122 415.4231,-126 394.4231,-126 391.4231,-122 319.5769,-122 319.5769,-86 418.4231,-86 418.4231,-122"/>
<text text-anchor="middle" x="369" y="-99.8" font-family="Times,serif" font-size="14.00" fill="#000000">SharedModule</text>
</g>
<!-- SharedModule&#45;&gt;UserModule -->
<g id="edge4" class="edge">
<title>SharedModule&#45;&gt;UserModule</title>
<path fill="none" stroke="#000000" d="M408.6115,-122.1061C408.6115,-122.1061 408.6115,-140.991 408.6115,-140.991"/>
<polygon fill="#000000" stroke="#000000" points="405.1116,-140.9909 408.6115,-150.991 412.1116,-140.991 405.1116,-140.9909"/>
</g>
<!-- UserRoutingModule -->
<g id="node6" class="node">
<title>UserRoutingModule</title>
<polygon fill="#8dd3c7" stroke="#000000" points="301.594,-122 298.594,-126 277.594,-126 274.594,-122 170.406,-122 170.406,-86 301.594,-86 301.594,-122"/>
<text text-anchor="middle" x="236" y="-99.8" font-family="Times,serif" font-size="14.00" fill="#000000">UserRoutingModule</text>
</g>
<!-- UserRoutingModule&#45;&gt;UserModule -->
<g id="edge5" class="edge">
<title>UserRoutingModule&#45;&gt;UserModule</title>
<path fill="none" stroke="#000000" d="M236,-122.0225C236,-139.3734 236,-163 236,-163 236,-163 388.8156,-163 388.8156,-163"/>
<polygon fill="#000000" stroke="#000000" points="388.8157,-166.5001 398.8156,-163 388.8156,-159.5001 388.8157,-166.5001"/>
</g>
<!-- UserServiceModule -->
<g id="node7" class="node">
<title>UserServiceModule</title>
<polygon fill="#8dd3c7" stroke="#000000" points="151.9538,-122 148.9538,-126 127.9538,-126 124.9538,-122 24.0462,-122 24.0462,-86 151.9538,-86 151.9538,-122"/>
<text text-anchor="middle" x="88" y="-99.8" font-family="Times,serif" font-size="14.00" fill="#000000">UserServiceModule</text>
</g>
<!-- UserServiceModule&#45;&gt;UserModule -->
<g id="edge6" class="edge">
<title>UserServiceModule&#45;&gt;UserModule</title>
<path fill="none" stroke="#000000" d="M88,-122.2843C88,-143.3211 88,-175 88,-175 88,-175 388.9466,-175 388.9466,-175"/>
<polygon fill="#000000" stroke="#000000" points="388.9466,-178.5001 398.9466,-175 388.9465,-171.5001 388.9466,-178.5001"/>
</g>
</g>
</svg>
