<?xml version="1.0" encoding="UTF-8" standalone="no"?>
<!DOCTYPE svg PUBLIC "-//W3C//DTD SVG 1.1//EN"
 "http://www.w3.org/Graphics/SVG/1.1/DTD/svg11.dtd">
<!-- Generated by graphviz version 2.40.1 (20161225.0304)
 -->
<!-- Title: dependencies Pages: 1 -->
<svg width="771pt" height="211pt"
 viewBox="0.00 0.00 771.00 211.00" xmlns="http://www.w3.org/2000/svg" xmlns:xlink="http://www.w3.org/1999/xlink">
<g id="graph0" class="graph" transform="scale(1 1) rotate(0) translate(4 207)">
<title>dependencies</title>
<polygon fill="#ffffff" stroke="transparent" points="-4,4 -4,-207 767,-207 767,4 -4,4"/>
<text text-anchor="start" x="360.5091" y="-42.4" font-family="sans-serif" font-weight="bold" font-size="14.00" fill="#000000">Legend</text>
<polygon fill="#ffffb3" stroke="transparent" points="147.5,-10 147.5,-30 167.5,-30 167.5,-10 147.5,-10"/>
<text text-anchor="start" x="171.129" y="-15.4" font-family="sans-serif" font-size="14.00" fill="#000000"> &#160;Declarations</text>
<polygon fill="#8dd3c7" stroke="transparent" points="260.5,-10 260.5,-30 280.5,-30 280.5,-10 260.5,-10"/>
<text text-anchor="start" x="284.2251" y="-15.4" font-family="sans-serif" font-size="14.00" fill="#000000"> &#160;Module</text>
<polygon fill="#80b1d3" stroke="transparent" points="346.5,-10 346.5,-30 366.5,-30 366.5,-10 346.5,-10"/>
<text text-anchor="start" x="370.2812" y="-15.4" font-family="sans-serif" font-size="14.00" fill="#000000"> &#160;Bootstrap</text>
<polygon fill="#fdb462" stroke="transparent" points="443.5,-10 443.5,-30 463.5,-30 463.5,-10 443.5,-10"/>
<text text-anchor="start" x="467.1732" y="-15.4" font-family="sans-serif" font-size="14.00" fill="#000000"> &#160;Providers</text>
<polygon fill="#fb8072" stroke="transparent" points="539.5,-10 539.5,-30 559.5,-30 559.5,-10 539.5,-10"/>
<text text-anchor="start" x="563.2258" y="-15.4" font-family="sans-serif" font-size="14.00" fill="#000000"> &#160;Exports</text>
<g id="clust1" class="cluster">
<title>cluster_UserModule</title>
<polygon fill="none" stroke="#000000" stroke-dasharray="1,5" points="8,-70 8,-195 755,-195 755,-70 8,-70"/>
</g>
<g id="clust2" class="cluster">
<title>cluster_UserModule_declarations</title>
<polygon fill="none" stroke="#000000" points="441,-78 441,-130 747,-130 747,-78 441,-78"/>
</g>
<g id="clust5" class="cluster">
<title>cluster_UserModule_imports</title>
<polygon fill="none" stroke="#000000" points="16,-78 16,-130 433,-130 433,-78 16,-78"/>
</g>
<!-- UserDetailComponent -->
<g id="node1" class="node">
<title>UserDetailComponent</title>
<polygon fill="#ffffb3" stroke="#000000" points="738.9664,-122 597.0336,-122 597.0336,-86 738.9664,-86 738.9664,-122"/>
<text text-anchor="middle" x="668" y="-99.8" font-family="Times,serif" font-size="14.00" fill="#000000">UserDetailComponent</text>
</g>
<!-- UserModule -->
<g id="node3" class="node">
<title>UserModule</title>
<polygon fill="#8dd3c7" stroke="#000000" points="418.9762,-187 415.9762,-191 394.9762,-191 391.9762,-187 333.0238,-187 333.0238,-151 418.9762,-151 418.9762,-187"/>
<text text-anchor="middle" x="376" y="-164.8" font-family="Times,serif" font-size="14.00" fill="#000000">UserModule</text>
</g>
<!-- UserDetailComponent&#45;&gt;UserModule -->
<g id="edge1" class="edge">
<title>UserDetailComponent&#45;&gt;UserModule</title>
<path fill="none" stroke="#000000" d="M668,-122.2843C668,-143.3211 668,-175 668,-175 668,-175 429.0856,-175 429.0856,-175"/>
<polygon fill="#000000" stroke="#000000" points="429.0856,-171.5001 419.0856,-175 429.0856,-178.5001 429.0856,-171.5001"/>
</g>
<!-- UserListComponent -->
<g id="node2" class="node">
<title>UserListComponent</title>
<polygon fill="#ffffb3" stroke="#000000" points="578.538,-122 449.462,-122 449.462,-86 578.538,-86 578.538,-122"/>
<text text-anchor="middle" x="514" y="-99.8" font-family="Times,serif" font-size="14.00" fill="#000000">UserListComponent</text>
</g>
<!-- UserListComponent&#45;&gt;UserModule -->
<g id="edge2" class="edge">
<title>UserListComponent&#45;&gt;UserModule</title>
<path fill="none" stroke="#000000" d="M514,-122.0225C514,-139.3734 514,-163 514,-163 514,-163 429.2854,-163 429.2854,-163"/>
<polygon fill="#000000" stroke="#000000" points="429.2855,-159.5001 419.2854,-163 429.2854,-166.5001 429.2855,-159.5001"/>
</g>
<!-- SharedModule -->
<g id="node4" class="node">
<title>SharedModule</title>
<polygon fill="#8dd3c7" stroke="#000000" points="425.4231,-122 422.4231,-126 401.4231,-126 398.4231,-122 326.5769,-122 326.5769,-86 425.4231,-86 425.4231,-122"/>
<text text-anchor="middle" x="376" y="-99.8" font-family="Times,serif" font-size="14.00" fill="#000000">SharedModule</text>
</g>
<!-- SharedModule&#45;&gt;UserModule -->
<g id="edge3" class="edge">
<title>SharedModule&#45;&gt;UserModule</title>
<path fill="none" stroke="#000000" d="M376,-122.1061C376,-122.1061 376,-140.991 376,-140.991"/>
<polygon fill="#000000" stroke="#000000" points="372.5001,-140.9909 376,-150.991 379.5001,-140.991 372.5001,-140.9909"/>
</g>
<!-- UserResolverModule -->
<g id="node5" class="node">
<title>UserResolverModule</title>
<polygon fill="#8dd3c7" stroke="#000000" points="308.7381,-122 305.7381,-126 284.7381,-126 281.7381,-122 173.2619,-122 173.2619,-86 308.7381,-86 308.7381,-122"/>
<text text-anchor="middle" x="241" y="-99.8" font-family="Times,serif" font-size="14.00" fill="#000000">UserResolverModule</text>
</g>
<!-- UserResolverModule&#45;&gt;UserModule -->
<g id="edge4" class="edge">
<title>UserResolverModule&#45;&gt;UserModule</title>
<path fill="none" stroke="#000000" d="M241,-122.0225C241,-139.3734 241,-163 241,-163 241,-163 322.914,-163 322.914,-163"/>
<polygon fill="#000000" stroke="#000000" points="322.914,-166.5001 332.914,-163 322.9139,-159.5001 322.914,-166.5001"/>
</g>
<!-- UserRoutingModule -->
<g id="node6" class="node">
<title>UserRoutingModule</title>
<polygon fill="#8dd3c7" stroke="#000000" points="155.594,-122 152.594,-126 131.594,-126 128.594,-122 24.406,-122 24.406,-86 155.594,-86 155.594,-122"/>
<text text-anchor="middle" x="90" y="-99.8" font-family="Times,serif" font-size="14.00" fill="#000000">UserRoutingModule</text>
</g>
<!-- UserRoutingModule&#45;&gt;UserModule -->
<g id="edge5" class="edge">
<title>UserRoutingModule&#45;&gt;UserModule</title>
<path fill="none" stroke="#000000" d="M90,-122.2843C90,-143.3211 90,-175 90,-175 90,-175 322.8733,-175 322.8733,-175"/>
<polygon fill="#000000" stroke="#000000" points="322.8733,-178.5001 332.8733,-175 322.8732,-171.5001 322.8733,-178.5001"/>
</g>
</g>
</svg>
