<?xml version="1.0" encoding="UTF-8" standalone="no"?>
<!DOCTYPE svg PUBLIC "-//W3C//DTD SVG 1.1//EN"
 "http://www.w3.org/Graphics/SVG/1.1/DTD/svg11.dtd">
<!-- Generated by graphviz version 2.40.1 (20161225.0304)
 -->
<!-- Title: dependencies Pages: 1 -->
<svg width="764pt" height="211pt"
 viewBox="0.00 0.00 764.00 211.00" xmlns="http://www.w3.org/2000/svg" xmlns:xlink="http://www.w3.org/1999/xlink">
<g id="graph0" class="graph" transform="scale(1 1) rotate(0) translate(4 207)">
<title>dependencies</title>
<polygon fill="#ffffff" stroke="transparent" points="-4,4 -4,-207 760,-207 760,4 -4,4"/>
<text text-anchor="start" x="357.0091" y="-42.4" font-family="sans-serif" font-weight="bold" font-size="14.00" fill="#000000">Legend</text>
<polygon fill="#ffffb3" stroke="transparent" points="144,-10 144,-30 164,-30 164,-10 144,-10"/>
<text text-anchor="start" x="167.629" y="-15.4" font-family="sans-serif" font-size="14.00" fill="#000000"> &#160;Declarations</text>
<polygon fill="#8dd3c7" stroke="transparent" points="257,-10 257,-30 277,-30 277,-10 257,-10"/>
<text text-anchor="start" x="280.7251" y="-15.4" font-family="sans-serif" font-size="14.00" fill="#000000"> &#160;Module</text>
<polygon fill="#80b1d3" stroke="transparent" points="343,-10 343,-30 363,-30 363,-10 343,-10"/>
<text text-anchor="start" x="366.7812" y="-15.4" font-family="sans-serif" font-size="14.00" fill="#000000"> &#160;Bootstrap</text>
<polygon fill="#fdb462" stroke="transparent" points="440,-10 440,-30 460,-30 460,-10 440,-10"/>
<text text-anchor="start" x="463.6732" y="-15.4" font-family="sans-serif" font-size="14.00" fill="#000000"> &#160;Providers</text>
<polygon fill="#fb8072" stroke="transparent" points="536,-10 536,-30 556,-30 556,-10 536,-10"/>
<text text-anchor="start" x="559.7258" y="-15.4" font-family="sans-serif" font-size="14.00" fill="#000000"> &#160;Exports</text>
<g id="clust1" class="cluster">
<title>cluster_UserModule</title>
<polygon fill="none" stroke="#000000" stroke-dasharray="1,5" points="8,-70 8,-195 748,-195 748,-70 8,-70"/>
</g>
<g id="clust2" class="cluster">
<title>cluster_UserModule_declarations</title>
<polygon fill="none" stroke="#000000" points="434,-78 434,-130 740,-130 740,-78 434,-78"/>
</g>
<g id="clust5" class="cluster">
<title>cluster_UserModule_imports</title>
<polygon fill="none" stroke="#000000" points="16,-78 16,-130 426,-130 426,-78 16,-78"/>
</g>
<!-- UserDetailComponent -->
<g id="node1" class="node">
<title>UserDetailComponent</title>
<polygon fill="#ffffb3" stroke="#000000" points="731.9664,-122 590.0336,-122 590.0336,-86 731.9664,-86 731.9664,-122"/>
<text text-anchor="middle" x="661" y="-99.8" font-family="Times,serif" font-size="14.00" fill="#000000">UserDetailComponent</text>
</g>
<!-- UserModule -->
<g id="node3" class="node">
<title>UserModule</title>
<polygon fill="#8dd3c7" stroke="#000000" points="411.9762,-187 408.9762,-191 387.9762,-191 384.9762,-187 326.0238,-187 326.0238,-151 411.9762,-151 411.9762,-187"/>
<text text-anchor="middle" x="369" y="-164.8" font-family="Times,serif" font-size="14.00" fill="#000000">UserModule</text>
</g>
<!-- UserDetailComponent&#45;&gt;UserModule -->
<g id="edge1" class="edge">
<title>UserDetailComponent&#45;&gt;UserModule</title>
<path fill="none" stroke="#000000" d="M661,-122.2843C661,-143.3211 661,-175 661,-175 661,-175 422.0856,-175 422.0856,-175"/>
<polygon fill="#000000" stroke="#000000" points="422.0856,-171.5001 412.0856,-175 422.0856,-178.5001 422.0856,-171.5001"/>
</g>
<!-- UserListComponent -->
<g id="node2" class="node">
<title>UserListComponent</title>
<polygon fill="#ffffb3" stroke="#000000" points="571.538,-122 442.462,-122 442.462,-86 571.538,-86 571.538,-122"/>
<text text-anchor="middle" x="507" y="-99.8" font-family="Times,serif" font-size="14.00" fill="#000000">UserListComponent</text>
</g>
<!-- UserListComponent&#45;&gt;UserModule -->
<g id="edge2" class="edge">
<title>UserListComponent&#45;&gt;UserModule</title>
<path fill="none" stroke="#000000" d="M507,-122.0225C507,-139.3734 507,-163 507,-163 507,-163 422.2854,-163 422.2854,-163"/>
<polygon fill="#000000" stroke="#000000" points="422.2855,-159.5001 412.2854,-163 422.2854,-166.5001 422.2855,-159.5001"/>
</g>
<!-- SharedModule -->
<g id="node4" class="node">
<title>SharedModule</title>
<polygon fill="#8dd3c7" stroke="#000000" points="418.4231,-122 415.4231,-126 394.4231,-126 391.4231,-122 319.5769,-122 319.5769,-86 418.4231,-86 418.4231,-122"/>
<text text-anchor="middle" x="369" y="-99.8" font-family="Times,serif" font-size="14.00" fill="#000000">SharedModule</text>
</g>
<!-- SharedModule&#45;&gt;UserModule -->
<g id="edge3" class="edge">
<title>SharedModule&#45;&gt;UserModule</title>
<path fill="none" stroke="#000000" d="M369,-122.1061C369,-122.1061 369,-140.991 369,-140.991"/>
<polygon fill="#000000" stroke="#000000" points="365.5001,-140.9909 369,-150.991 372.5001,-140.991 365.5001,-140.9909"/>
</g>
<!-- UserRoutingModule -->
<g id="node5" class="node">
<title>UserRoutingModule</title>
<polygon fill="#8dd3c7" stroke="#000000" points="301.594,-122 298.594,-126 277.594,-126 274.594,-122 170.406,-122 170.406,-86 301.594,-86 301.594,-122"/>
<text text-anchor="middle" x="236" y="-99.8" font-family="Times,serif" font-size="14.00" fill="#000000">UserRoutingModule</text>
</g>
<!-- UserRoutingModule&#45;&gt;UserModule -->
<g id="edge4" class="edge">
<title>UserRoutingModule&#45;&gt;UserModule</title>
<path fill="none" stroke="#000000" d="M236,-122.0225C236,-139.3734 236,-163 236,-163 236,-163 315.8187,-163 315.8187,-163"/>
<polygon fill="#000000" stroke="#000000" points="315.8187,-166.5001 325.8187,-163 315.8187,-159.5001 315.8187,-166.5001"/>
</g>
<!-- UserServiceModule -->
<g id="node6" class="node">
<title>UserServiceModule</title>
<polygon fill="#8dd3c7" stroke="#000000" points="151.9538,-122 148.9538,-126 127.9538,-126 124.9538,-122 24.0462,-122 24.0462,-86 151.9538,-86 151.9538,-122"/>
<text text-anchor="middle" x="88" y="-99.8" font-family="Times,serif" font-size="14.00" fill="#000000">UserServiceModule</text>
</g>
<!-- UserServiceModule&#45;&gt;UserModule -->
<g id="edge5" class="edge">
<title>UserServiceModule&#45;&gt;UserModule</title>
<path fill="none" stroke="#000000" d="M88,-122.2843C88,-143.3211 88,-175 88,-175 88,-175 316.0163,-175 316.0163,-175"/>
<polygon fill="#000000" stroke="#000000" points="316.0163,-178.5001 326.0163,-175 316.0162,-171.5001 316.0163,-178.5001"/>
</g>
</g>
</svg>
